<svg xmlns="http://www.w3.org/2000/svg"  viewBox="0 0 48 48" width="48px" height="48px"><path fill="#0078d4" d="M24,4C12.954,4,4,12.954,4,24s8.954,20,20,20s20-8.954,20-20S35.046,4,24,4z"/><path d="M30,35v-9c0-1.103-0.897-2-2-2s-2,0.897-2,2v9h-6V18h6v1.027C27.04,18.359,28.252,18,29.5,18	c3.584,0,6.5,2.916,6.5,6.5V35H30z M13,35V18h2.966C14.247,18,13,16.738,13,14.999C13,13.261,14.267,12,16.011,12	c1.696,0,2.953,1.252,2.989,2.979C19,16.733,17.733,18,15.988,18H19v17H13z" opacity=".05"/><path d="M30.5,34.5V26c0-1.378-1.121-2.5-2.5-2.5s-2.5,1.122-2.5,2.5v8.5h-5v-16h5v1.534	c1.09-0.977,2.512-1.534,4-1.534c3.309,0,6,2.691,6,6v10H30.5z M13.5,34.5v-16h5v16H13.5z M15.966,17.5	c-1.429,0-2.466-1.052-2.466-2.501c0-1.448,1.056-2.499,2.511-2.499c1.436,0,2.459,1.023,2.489,2.489	c0,1.459-1.057,2.511-2.512,2.511H15.966z" opacity=".07"/><path fill="#fff" d="M14,19h4v15h-4V19z M15.988,17h-0.022C14.772,17,14,16.11,14,14.999C14,13.864,14.796,13,16.011,13	c1.217,0,1.966,0.864,1.989,1.999C18,16.11,17.228,17,15.988,17z M35,24.5c0-3.038-2.462-5.5-5.5-5.5	c-1.862,0-3.505,0.928-4.5,2.344V19h-4v15h4v-8c0-1.657,1.343-3,3-3s3,1.343,3,3v8h4C35,34,35,24.921,35,24.5z"/></svg>