<svg xmlns="http://www.w3.org/2000/svg"  viewBox="0 0 24 24" width="24px" height="24px"><path d="M 14.414063 11.144531 C 14.957031 10.09375 15.273438 8.902344 15.273438 7.636719 C 15.273438 3.421875 11.851563 0 7.636719 0 C 3.421875 0 0 3.417969 0 7.636719 C 0 11.851563 3.421875 15.273438 7.636719 15.273438 C 8.902344 15.273438 10.09375 14.960938 11.140625 14.414063 L 15.273438 18.542969 L 17.453125 18.542969 C 17.453125 18.546875 17.453125 20.726563 17.453125 20.726563 L 19.636719 20.726563 L 19.636719 22.910156 L 20.726563 24 L 24 24 L 24 20.726563 Z M 5.5 8 C 4.121094 8 3 6.882813 3 5.5 C 3 4.117188 4.121094 3 5.5 3 C 6.882813 3 8 4.117188 8 5.5 C 8 6.882813 6.882813 8 5.5 8 Z"/></svg>