<svg version="1.1" xmlns="http://www.w3.org/2000/svg" viewBox="0 0 190.74449866798125 320.555842453433" width="572.2334960039437" height="961.667527360299">
  <!-- svg-source:excalidraw -->
  
  <defs>
    <style class="style-fonts">
      @font-face {
        font-family: "Virgil";
        src: url("https://excalidraw.com/Virgil.woff2");
      }
      @font-face {
        font-family: "Cascadia";
        src: url("https://excalidraw.com/Cascadia.woff2");
      }
    </style>
  </defs>
  <g stroke-linecap="round" transform="translate(31.986429034685443 76.25106101766221) rotate(349.1266230421807 6.8000030517578125 117.20002746582031)"><path d="M2.83 0.62 L12.54 0.17 L13.56 3.5 L12.3 230.78 L13.4 231.65 L9.2 232.96 L2.49 235.21 L1.83 232.72 L0.83 4.67 L2.14 1.51 L3.92 1.26" stroke="none" stroke-width="0" fill="#f2cd5c"></path><path d="M3.4 0 M3.4 0 C6.41 0.14, 9 0.16, 10.2 0 M3.4 0 C5.65 0.28, 7.75 0.06, 10.2 0 M10.2 0 C13.9 0.69, 14.95 0.47, 13.6 3.4 M10.2 0 C10.93 1.67, 14.26 1.72, 13.6 3.4 M13.6 3.4 C13.15 68.93, 11.94 136.65, 13.6 231 M13.6 3.4 C14.41 85.25, 14.47 166.03, 13.6 231 M13.6 231 C14.86 234.79, 13.05 236.38, 10.2 234.4 M13.6 231 C15.73 231.99, 10.36 236.55, 10.2 234.4 M10.2 234.4 C7.54 234.55, 6.32 234.44, 3.4 234.4 M10.2 234.4 C8.3 234.49, 6.31 234.18, 3.4 234.4 M3.4 234.4 C0.11 236.02, -0.95 234.98, 0 231 M3.4 234.4 C-0.86 235.12, -0.47 233.4, 0 231 M0 231 C3.05 165.79, 2.51 105.45, 0 3.4 M0 231 C1.95 167.71, 1.57 103.61, 0 3.4 M0 3.4 C-0.13 1.89, 2.05 1.44, 3.4 0 M0 3.4 C-1.22 1.94, -0.31 0.45, 3.4 0" stroke="#f2cd5c" stroke-width="4" fill="none"></path></g><g stroke-linecap="round" transform="translate(91.98642903468544 76.25106101766221) rotate(352.6348358044236 6.8000030517578125 117.20002746582031)"><path d="M4.02 0.86 L11.65 0.18 L13.7 2.1 L13.38 231.65 L10.85 232.55 L8.76 234.97 L2.93 236.02 L1.72 231.83 L1.27 4.69 L1.51 1.37 L4.66 1.48" stroke="none" stroke-width="0" fill="#f2cd5c"></path><path d="M3.4 0 M3.4 0 C5.88 0.47, 8.21 -0.02, 10.2 0 M3.4 0 C5.19 0.19, 6.46 0.21, 10.2 0 M10.2 0 C13.16 1.35, 12.94 -0.2, 13.6 3.4 M10.2 0 C14.14 0.66, 14.19 1.01, 13.6 3.4 M13.6 3.4 C11.17 53.22, 11.82 104.19, 13.6 231 M13.6 3.4 C14.59 79.76, 14.11 156.26, 13.6 231 M13.6 231 C15.12 233.85, 14.44 236.26, 10.2 234.4 M13.6 231 C12.32 231.16, 14.62 234.64, 10.2 234.4 M10.2 234.4 C7.99 234.68, 5.53 234.31, 3.4 234.4 M10.2 234.4 C8.12 234.55, 5.57 234.25, 3.4 234.4 M3.4 234.4 C2.75 233.45, 1.71 231.54, 0 231 M3.4 234.4 C1.86 233.93, 0.13 232.78, 0 231 M0 231 C-2.13 183.12, 1.03 133.23, 0 3.4 M0 231 C-0.45 178.4, -0.61 125.24, 0 3.4 M0 3.4 C0.75 2.05, 2.57 -1.06, 3.4 0 M0 3.4 C0.8 -0.31, 1.59 -1.38, 3.4 0" stroke="#f2cd5c" stroke-width="4" fill="none"></path></g><g stroke-linecap="round" transform="translate(151.98642903468544 76.25106101766221) rotate(7.4595389354992445 6.8000030517578125 117.20002746582031)"><path d="M4.26 -0.04 L11.65 0.31 L12.3 3.18 L14.25 229.1 L11.75 232.11 L10.77 235.42 L3.74 235.91 L0.83 232.27 L1.29 4.06 L1.37 2.11 L4.88 0.8" stroke="none" stroke-width="0" fill="#f2cd5c"></path><path d="M3.4 0 M3.4 0 C6.21 0.17, 8 -0.56, 10.2 0 M3.4 0 C5.75 0.01, 7.9 0.06, 10.2 0 M10.2 0 C13.82 -0.66, 12.27 2.59, 13.6 3.4 M10.2 0 C13.12 0.59, 13.48 -0.72, 13.6 3.4 M13.6 3.4 C14.79 60.32, 15.85 119.59, 13.6 231 M13.6 3.4 C14.11 76.32, 14.46 149.65, 13.6 231 M13.6 231 C14.18 235.24, 14.32 233.29, 10.2 234.4 M13.6 231 C11.49 235.42, 12.71 235.45, 10.2 234.4 M10.2 234.4 C8.4 234.44, 5.88 234.6, 3.4 234.4 M10.2 234.4 C8.78 234.26, 6.93 234.7, 3.4 234.4 M3.4 234.4 C0.18 236.11, -1.73 233.9, 0 231 M3.4 234.4 C0.66 234.53, -0.48 231.29, 0 231 M0 231 C-0.73 159.11, -1.9 83.14, 0 3.4 M0 231 C-1.2 150.26, -1.51 68.86, 0 3.4 M0 3.4 C0.92 2.57, 0.07 0.7, 3.4 0 M0 3.4 C-1.44 1.59, -0.25 -1.42, 3.4 0" stroke="#f2cd5c" stroke-width="4" fill="none"></path></g><g stroke-linecap="round" transform="translate(29.034287667401713 9.173235111558284) rotate(330.00699736843 22.198459261335756 11.923646612153462)"><path d="M28.71 2.96 L43.06 10.7 L25.11 23.18 L18.76 21.53 L0 12.57 L21.69 3.14 L24.72 1.58 L30.02 4.29" stroke="none" stroke-width="0" fill="#f2cd5c"></path><path d="M28.75 3 M28.75 3 C32.92 5.4, 35.79 7.74, 38.65 9 M28.75 3 C32.02 4.46, 35.29 7.18, 38.65 9 M38.65 9 C46.1 13.33, 44.79 13.43, 38.65 15 M38.65 9 C45.19 13.56, 43.64 10.47, 38.65 15 M38.65 15 C34.91 16.28, 30.76 20.14, 28.75 20.85 M38.65 15 C36.89 16.38, 34.6 17.5, 28.75 20.85 M28.75 20.85 C24.41 24.3, 23.29 25.11, 17.25 20.85 M28.75 20.85 C24.75 24.51, 25.27 25.98, 17.25 20.85 M17.25 20.85 C14.63 20.11, 11.88 17.05, 5.75 15 M17.25 20.85 C13.5 19.16, 9.39 17.3, 5.75 15 M5.75 15 C0.84 12.74, -1.01 10.98, 5.75 9 M5.75 15 C1.86 10.91, 1.97 10.01, 5.75 9 M5.75 9 C9.3 5.89, 13.67 6.06, 17.25 3 M5.75 9 C7.9 7.26, 10.7 6.98, 17.25 3 M17.25 3 C24.53 0.58, 24.15 -0.13, 28.75 3 M17.25 3 C23.87 1.06, 24.65 -1.22, 28.75 3" stroke="#f2cd5c" stroke-width="4" fill="none"></path></g><g stroke-linecap="round" transform="translate(122.28940934184243 17.626866739328165) rotate(30.698524424095204 22.198459261335756 22.5)"><path d="M28.71 5.85 L41.66 22.78 L29.4 37.35 L22 42.12 L6.32 29.77 L3.27 24.72 L22.73 2.98 L25.39 2.37 L29.27 7.01" stroke="none" stroke-width="0" fill="#f2cd5c"></path><path d="M28.75 5.75 M28.75 5.75 C33.55 10.38, 37.35 14.74, 38.65 17.25 M28.75 5.75 C32.07 9.87, 35.17 12.86, 38.65 17.25 M38.65 17.25 C45.83 23.69, 45.75 22.34, 38.65 28.75 M38.65 17.25 C42.86 24.67, 45.06 23.59, 38.65 28.75 M38.65 28.75 C36.59 30.5, 32.66 34.15, 28.75 39.25 M38.65 28.75 C35.27 33.03, 31.78 36.37, 28.75 39.25 M28.75 39.25 C24.26 46.52, 23.58 46.98, 17.25 39.25 M28.75 39.25 C25.13 43.72, 20.89 47.15, 17.25 39.25 M17.25 39.25 C12.37 36.33, 10.84 32.82, 5.75 28.75 M17.25 39.25 C14.07 36.4, 10.72 32.58, 5.75 28.75 M5.75 28.75 C-1.02 24.62, -0.95 24.71, 5.75 17.25 M5.75 28.75 C-1.99 23.72, -0.47 23.13, 5.75 17.25 M5.75 17.25 C10.37 12.4, 13.07 12.2, 17.25 5.75 M5.75 17.25 C9.67 14.58, 12.53 11.19, 17.25 5.75 M17.25 5.75 C22.87 0.75, 23.92 1.44, 28.75 5.75 M17.25 5.75 C21.78 0.8, 21.56 0.45, 28.75 5.75" stroke="#f2cd5c" stroke-width="4" fill="none"></path></g></svg>