<svg version="1.1" xmlns="http://www.w3.org/2000/svg" viewBox="0 0 153.60000610351562 274.67486758082293" width="460.8000183105469" height="824.0246027424688">
  <!-- svg-source:excalidraw -->
  
  <defs>
    <style class="style-fonts">
      @font-face {
        font-family: "Virgil";
        src: url("https://excalidraw.com/Virgil.woff2");
      }
      @font-face {
        font-family: "Cascadia";
        src: url("https://excalidraw.com/Cascadia.woff2");
      }
    </style>
  </defs>
  <g stroke-linecap="round" transform="translate(10 30.27481264918231) rotate(0 6.8000030517578125 117.20002746582031)"><path d="M5.01 1.08 L13.46 0.98 L12.58 2.72 L12.92 232.36 L11.23 233.4 L12 234.58 L2.12 234.26 L-1.7 232.64 L-1.74 2.78 L0.76 1.01 L4.11 -0.8" stroke="none" stroke-width="0" fill="#f2cd5c"></path><path d="M3.4 0 M3.4 0 C4.98 0.24, 7.28 0.37, 10.2 0 M3.4 0 C5.68 0.29, 7.69 -0.2, 10.2 0 M10.2 0 C11.01 1.6, 14.6 1.8, 13.6 3.4 M10.2 0 C10.71 -1.13, 11.62 1.14, 13.6 3.4 M13.6 3.4 C14.04 88.47, 11.34 171.45, 13.6 231 M13.6 3.4 C12.6 57.94, 11.64 110.84, 13.6 231 M13.6 231 C13.65 231.59, 11.08 234.71, 10.2 234.4 M13.6 231 C11.44 232.33, 12.23 232.62, 10.2 234.4 M10.2 234.4 C9.36 233.7, 6.87 234.64, 3.4 234.4 M10.2 234.4 C8.57 234.56, 7.6 234.42, 3.4 234.4 M3.4 234.4 C-0.03 235.25, 1.99 231.71, 0 231 M3.4 234.4 C1.88 234.33, 2.2 234.35, 0 231 M0 231 C0.13 180.5, -2.47 128.71, 0 3.4 M0 231 C-0.1 145.89, -0.95 62.51, 0 3.4 M0 3.4 C-1.42 1.71, 2.8 1.62, 3.4 0 M0 3.4 C-0.62 -0.09, 2.19 0.29, 3.4 0" stroke="#f2cd5c" stroke-width="4" fill="none"></path></g><g stroke-linecap="round" transform="translate(70 30.27481264918231) rotate(0 6.8000030517578125 117.20002746582031)"><path d="M2.29 0.43 L10.27 0.79 L15.27 5.02 L13.06 229.93 L13.67 233.8 L10.82 236.09 L0.66 233.91 L1.13 230.23 L-0.77 4.85 L-1.04 0.84 L3.87 0.83" stroke="none" stroke-width="0" fill="#f2cd5c"></path><path d="M3.4 0 M3.4 0 C4.73 -0.01, 6.12 -0.09, 10.2 0 M3.4 0 C5.45 0.18, 7.36 0.21, 10.2 0 M10.2 0 C13.34 1.07, 13.77 -0.83, 13.6 3.4 M10.2 0 C11.67 2.11, 12.3 -0.53, 13.6 3.4 M13.6 3.4 C13.28 82.14, 13.23 165.39, 13.6 231 M13.6 3.4 C13.62 50.38, 14.95 98.18, 13.6 231 M13.6 231 C13.37 232.41, 13.58 235.61, 10.2 234.4 M13.6 231 C15.89 235.52, 13.45 233.99, 10.2 234.4 M10.2 234.4 C7.76 233.76, 4.3 233.7, 3.4 234.4 M10.2 234.4 C7.95 234.65, 5.04 234.36, 3.4 234.4 M3.4 234.4 C2.74 233.15, 0.72 232.63, 0 231 M3.4 234.4 C0.79 234.3, -1.32 231.83, 0 231 M0 231 C0.18 162, -0.1 91.79, 0 3.4 M0 231 C1.72 145.68, 0.87 60.77, 0 3.4 M0 3.4 C1.79 0.67, 2.42 -0.73, 3.4 0 M0 3.4 C1.83 2.94, 2.16 1.05, 3.4 0" stroke="#f2cd5c" stroke-width="4" fill="none"></path></g><g stroke-linecap="round" transform="translate(130 30.27481264918231) rotate(0 6.8000030517578125 117.20002746582031)"><path d="M3.83 -1.42 L12.26 1.88 L15.22 2.86 L12.53 231.92 L13 234.17 L11.89 233.14 L1.64 235.32 L-0.77 230.23 L1.45 1.51 L0.84 1.32 L4.23 -1.36" stroke="none" stroke-width="0" fill="#f2cd5c"></path><path d="M3.4 0 M3.4 0 C4.82 -0.41, 6.22 0.09, 10.2 0 M3.4 0 C5.86 -0.25, 8.18 0.16, 10.2 0 M10.2 0 C13.53 0.17, 11.64 0.44, 13.6 3.4 M10.2 0 C14.57 -1.3, 11.94 2.34, 13.6 3.4 M13.6 3.4 C13.71 57.7, 16.7 108.6, 13.6 231 M13.6 3.4 C13.92 82.2, 14.73 159.91, 13.6 231 M13.6 231 C12.75 234.38, 13.68 236.39, 10.2 234.4 M13.6 231 C15.86 234.25, 12.05 236.46, 10.2 234.4 M10.2 234.4 C7.28 233.82, 4.89 234.93, 3.4 234.4 M10.2 234.4 C8.28 234.4, 5.78 234.73, 3.4 234.4 M3.4 234.4 C-0.11 235.12, -0.64 232.96, 0 231 M3.4 234.4 C1.03 233.08, -1.44 233.43, 0 231 M0 231 C1.72 176.89, 1.4 126.91, 0 3.4 M0 231 C-0.53 179.7, -0.27 130.43, 0 3.4 M0 3.4 C-0.47 2.42, 0.41 1.59, 3.4 0 M0 3.4 C1.81 2.16, 2.18 -1.14, 3.4 0" stroke="#f2cd5c" stroke-width="4" fill="none"></path></g><g stroke-linecap="round" transform="translate(23.12984101590257 10.824416981485598) rotate(0 22.198459261335756 11.923646612153462)"><path d="M30.15 1.54 L42.1 11.69 L26.26 22.12 L21.73 21.13 L0.98 13.44 L22.56 2.57 L22.35 0.27 L29.47 1.1" stroke="none" stroke-width="0" fill="#f2cd5c"></path><path d="M28.75 3 M28.75 3 C32.8 5.54, 35.09 6.19, 38.65 9 M28.75 3 C32.14 5.34, 36.16 7.84, 38.65 9 M38.65 9 C44.18 13.32, 46 12.43, 38.65 15 M38.65 9 C45.5 10.98, 45.03 11.26, 38.65 15 M38.65 15 C34.37 16.97, 31.41 18.93, 28.75 20.85 M38.65 15 C34.89 17.03, 31.89 18.54, 28.75 20.85 M28.75 20.85 C24.77 23.63, 24.03 25.25, 17.25 20.85 M28.75 20.85 C24.03 25.1, 25.23 24.95, 17.25 20.85 M17.25 20.85 C14.49 18.54, 12.53 17.25, 5.75 15 M17.25 20.85 C13.46 19.07, 8.37 16.78, 5.75 15 M5.75 15 C1.65 11.74, -0.78 10.21, 5.75 9 M5.75 15 C1.24 10.4, 1.92 11.06, 5.75 9 M5.75 9 C9.67 7.31, 15.22 5.54, 17.25 3 M5.75 9 C10.04 6.44, 14.43 4.29, 17.25 3 M17.25 3 C22.23 -1.52, 21.82 -0.76, 28.75 3 M17.25 3 C21.88 -0.94, 23.18 0.78, 28.75 3" stroke="#f2cd5c" stroke-width="4" fill="none"></path></g><g stroke-linecap="round" transform="translate(84.83952663280161 10) rotate(0 22.198459261335756 11.923646612153462)"><path d="M27.16 2.36 L42.48 10.01 L24.59 23.12 L18.75 23.47 L2.33 10.48 L21.57 -0.37 L22.74 -0.12 L28.14 4.25" stroke="none" stroke-width="0" fill="#f2cd5c"></path><path d="M28.75 3 M28.75 3 C30.11 4.7, 32.33 4.96, 38.65 9 M28.75 3 C31.09 4.31, 33.29 5.8, 38.65 9 M38.65 9 C44.39 12.4, 42.66 12.99, 38.65 15 M38.65 9 C46.53 11.44, 45.4 9.87, 38.65 15 M38.65 15 C35.22 17.99, 31.61 18.76, 28.75 20.85 M38.65 15 C36.44 16.53, 33.41 17.23, 28.75 20.85 M28.75 20.85 C24.84 23.68, 23.7 22.51, 17.25 20.85 M28.75 20.85 C23.86 24.98, 23.26 22.55, 17.25 20.85 M17.25 20.85 C13.99 18.09, 7.78 15.23, 5.75 15 M17.25 20.85 C14.04 19.49, 9.58 16.78, 5.75 15 M5.75 15 C-0.29 11.43, 0.62 12.86, 5.75 9 M5.75 15 C-0.04 11.96, 0.12 10.51, 5.75 9 M5.75 9 C8.4 6.44, 12.75 6.31, 17.25 3 M5.75 9 C10.61 7.02, 14.92 4.42, 17.25 3 M17.25 3 C24.26 1.48, 23.8 0.73, 28.75 3 M17.25 3 C24.6 0.56, 24.75 0.64, 28.75 3" stroke="#f2cd5c" stroke-width="4" fill="none"></path></g></svg>