<?xml version="1.0" encoding="iso-8859-1"?>
<!-- Generator: Adobe Illustrator 19.0.0, SVG Export Plug-In . SVG Version: 6.00 Build 0)  -->
<svg version="1.1" id="Capa_1" xmlns="http://www.w3.org/2000/svg" xmlns:xlink="http://www.w3.org/1999/xlink" x="0px" y="0px"
	 viewBox="0 0 57 57" style="enable-background:new 0 0 57 57;" xml:space="preserve">
<g>
	<circle style="fill:#cbd5e1;" cx="18.5" cy="31.5" r="5.5"/>
	<path style="fill:#cbd5e1;" d="M18.5,38c-3.584,0-6.5-2.916-6.5-6.5s2.916-6.5,6.5-6.5s6.5,2.916,6.5,6.5S22.084,38,18.5,38z
		 M18.5,27c-2.481,0-4.5,2.019-4.5,4.5s2.019,4.5,4.5,4.5s4.5-2.019,4.5-4.5S20.981,27,18.5,27z"/>
</g>
<g>
	<circle style="fill:#cbd5e1;" cx="35.5" cy="31.5" r="5.5"/>
	<path style="fill:#cbd5e1;" d="M35.5,38c-3.584,0-6.5-2.916-6.5-6.5s2.916-6.5,6.5-6.5s6.5,2.916,6.5,6.5S39.084,38,35.5,38z
		 M35.5,27c-2.481,0-4.5,2.019-4.5,4.5s2.019,4.5,4.5,4.5s4.5-2.019,4.5-4.5S37.981,27,35.5,27z"/>
</g>
<path style="fill:#cbd5e1;" d="M13,32c-0.553,0-1-0.447-1-1c0-7.72,6.28-14,14-14c0.553,0,1,0.447,1,1s-0.447,1-1,1
	c-6.617,0-12,5.383-12,12C14,31.553,13.553,32,13,32z"/>
<path style="fill:#cbd5e1;" d="M30,32c-0.553,0-1-0.447-1-1c0-7.72,6.28-14,14-14c0.553,0,1,0.447,1,1s-0.447,1-1,1
	c-6.617,0-12,5.383-12,12C31,31.553,30.553,32,30,32z"/>
<g>
</g>
<g>
</g>
<g>
</g>
<g>
</g>
<g>
</g>
<g>
</g>
<g>
</g>
<g>
</g>
<g>
</g>
<g>
</g>
<g>
</g>
<g>
</g>
<g>
</g>
<g>
</g>
<g>
</g>
</svg>
