<!DOCTYPE svg PUBLIC "-//W3C//DTD SVG 1.1//EN" "http://www.w3.org/Graphics/SVG/1.1/DTD/svg11.dtd">
<!-- Uploaded to: SVG Repo, www.svgrepo.com, Transformed by: SVG Repo Mixer Tools -->
<svg fill="#000000" height="64px" width="64px" version="1.1" id="Layer_1" xmlns="http://www.w3.org/2000/svg" xmlns:xlink="http://www.w3.org/1999/xlink" viewBox="0 0 512.00 512.00" xml:space="preserve" stroke="#000000" stroke-width="0.00512">
<g id="SVGRepo_bgCarrier" stroke-width="0"/>
<g id="SVGRepo_tracerCarrier" stroke-linecap="round" stroke-linejoin="round"/>
<g id="SVGRepo_iconCarrier"> <g> <g> <g> <path d="M426.667,213.333c-11.782,0-21.333,9.551-21.333,21.333V256c0,82.469-66.865,149.333-149.333,149.333 S106.667,338.469,106.667,256v-21.333c0-11.782-9.551-21.333-21.333-21.333c-11.782,0-21.333,9.551-21.333,21.333V256 c0,98.821,74.674,180.199,170.667,190.814v22.519H192c-11.782,0-21.333,9.551-21.333,21.333S180.218,512,192,512h128 c11.782,0,21.333-9.551,21.333-21.333s-9.551-21.333-21.333-21.333h-42.667v-22.519C373.326,436.199,448,354.821,448,256v-21.333 C448,222.885,438.449,213.333,426.667,213.333z"/> <path d="M256,384c70.683,0,128-57.317,128-128V128C384,57.317,326.683,0,256,0S128,57.317,128,128v128 C128,326.683,185.317,384,256,384z M170.667,128c0-47.119,38.214-85.333,85.333-85.333S341.333,80.881,341.333,128v128 c0,47.119-38.214,85.333-85.333,85.333S170.667,303.119,170.667,256V128z"/> </g> </g> </g> </g>
</svg>