<svg xmlns="http://www.w3.org/2000/svg" width="166.333" height="180.406" viewBox="0 0 166.333 180.406"><g transform="translate(-493 105.736)"><path d="M83.744,3A183.06,183.06,0,0,0,51.674,5.732,122.578,122.578,0,0,0,25.695,13.12a69.838,69.838,0,0,0-9.8,5.013A40.747,40.747,0,0,0,8.7,23.718C4.918,27.494,3,31.411,3,35.358S4.918,43.222,8.7,47a40.747,40.747,0,0,0,7.192,5.585,69.839,69.839,0,0,0,9.8,5.013,122.578,122.578,0,0,0,25.979,7.388,183.06,183.06,0,0,0,32.069,2.732,183.059,183.059,0,0,0,32.069-2.732A122.577,122.577,0,0,0,141.792,57.6a69.839,69.839,0,0,0,9.8-5.013A40.747,40.747,0,0,0,158.787,47c3.783-3.776,5.7-7.692,5.7-11.64s-1.918-7.864-5.7-11.64a40.747,40.747,0,0,0-7.192-5.585,69.838,69.838,0,0,0-9.8-5.013,122.577,122.577,0,0,0-25.979-7.388A183.059,183.059,0,0,0,83.744,3m0-3c46.25,0,83.744,15.83,83.744,35.358S129.994,70.717,83.744,70.717,0,54.886,0,35.358,37.493,0,83.744,0Z" transform="translate(565.493 -105.736) rotate(60)" fill="#00f2fe"/><path d="M83.166,3a180.084,180.084,0,0,0-31.84,2.738,120.815,120.815,0,0,0-25.791,7.4A69.083,69.083,0,0,0,15.8,18.166a40.506,40.506,0,0,0-7.139,5.6C4.906,27.551,3,31.483,3,35.448s1.906,7.9,5.665,11.685a40.506,40.506,0,0,0,7.139,5.6,69.083,69.083,0,0,0,9.731,5.024,120.815,120.815,0,0,0,25.791,7.4A180.084,180.084,0,0,0,83.166,67.9a180.084,180.084,0,0,0,31.84-2.738,120.815,120.815,0,0,0,25.791-7.4,69.083,69.083,0,0,0,9.731-5.024,40.506,40.506,0,0,0,7.139-5.6c3.759-3.788,5.665-7.719,5.665-11.685s-1.906-7.9-5.665-11.685a40.506,40.506,0,0,0-7.139-5.6,69.083,69.083,0,0,0-9.731-5.024,120.815,120.815,0,0,0-25.791-7.4A180.084,180.084,0,0,0,83.166,3m0-3c45.931,0,83.166,15.871,83.166,35.448S129.1,70.9,83.166,70.9,0,55.025,0,35.448,37.235,0,83.166,0Z" transform="translate(493 -51.921)" fill="#00f2fe"/><path d="M83.744,3A183.06,183.06,0,0,0,51.674,5.732,122.578,122.578,0,0,0,25.695,13.12a69.838,69.838,0,0,0-9.8,5.013A40.747,40.747,0,0,0,8.7,23.718C4.918,27.494,3,31.411,3,35.358S4.918,43.222,8.7,47a40.747,40.747,0,0,0,7.192,5.585,69.839,69.839,0,0,0,9.8,5.013,122.578,122.578,0,0,0,25.979,7.388,183.06,183.06,0,0,0,32.069,2.732,183.059,183.059,0,0,0,32.069-2.732A122.577,122.577,0,0,0,141.792,57.6a69.839,69.839,0,0,0,9.8-5.013A40.747,40.747,0,0,0,158.787,47c3.783-3.776,5.7-7.692,5.7-11.64s-1.918-7.864-5.7-11.64a40.747,40.747,0,0,0-7.192-5.585,69.838,69.838,0,0,0-9.8-5.013,122.577,122.577,0,0,0-25.979-7.388A183.059,183.059,0,0,0,83.744,3m0-3c46.25,0,83.744,15.83,83.744,35.358S129.994,70.717,83.744,70.717,0,54.886,0,35.358,37.493,0,83.744,0Z" transform="translate(649.237 -70.377) rotate(120)" fill="#00f2fe"/></g></svg>