<svg xmlns="http://www.w3.org/2000/svg" width="236" height="81.379" viewBox="0 0 236 81.379"><g transform="translate(-300 -4.291)"><g transform="translate(300 15.202)"><text transform="translate(0 44.536)" fill="#010326" font-size="35" font-family="Raleway-Bold, Raleway" font-weight="700"><tspan x="0" y="0" xml:space="preserve">React        Play</tspan></text><g transform="translate(102.473 0)"><g transform="translate(0)"><path d="M27.646,2a59.42,59.42,0,0,0-10.409.886A39.462,39.462,0,0,0,8.875,5.261a16.882,16.882,0,0,0-5.29,3.283A4.549,4.549,0,0,0,2,11.673,4.549,4.549,0,0,0,3.586,14.8a16.882,16.882,0,0,0,5.29,3.283,39.462,39.462,0,0,0,8.361,2.375,59.42,59.42,0,0,0,10.409.886,59.421,59.421,0,0,0,10.409-.886,39.462,39.462,0,0,0,8.361-2.375,16.882,16.882,0,0,0,5.29-3.283,4.549,4.549,0,0,0,1.586-3.128,4.549,4.549,0,0,0-1.586-3.128,16.882,16.882,0,0,0-5.29-3.283,39.462,39.462,0,0,0-8.361-2.375A59.421,59.421,0,0,0,27.646,2m0-2C42.914,0,55.292,5.226,55.292,11.673S42.914,23.345,27.646,23.345,0,18.119,0,11.673,12.377,0,27.646,0Z" transform="translate(24.729 0) rotate(60)" fill="#00f2fe"/><path d="M27.54,2a60.277,60.277,0,0,0-10.374.867A39.885,39.885,0,0,0,8.832,5.192C4.554,6.966,2,9.294,2,11.419s2.554,4.453,6.832,6.227a39.885,39.885,0,0,0,8.333,2.325,60.277,60.277,0,0,0,10.374.867,60.277,60.277,0,0,0,10.374-.867,39.885,39.885,0,0,0,8.333-2.325c4.278-1.774,6.832-4.1,6.832-6.227s-2.554-4.453-6.832-6.227a39.885,39.885,0,0,0-8.333-2.325A60.277,60.277,0,0,0,27.54,2m0-2C42.75,0,55.08,5.112,55.08,11.419S42.75,22.838,27.54,22.838,0,17.725,0,11.419,12.33,0,27.54,0Z" transform="translate(0 18.254)" fill="#00f2fe"/><path d="M27.646,2a59.42,59.42,0,0,0-10.409.886A39.462,39.462,0,0,0,8.875,5.261a16.882,16.882,0,0,0-5.29,3.283A4.549,4.549,0,0,0,2,11.673,4.549,4.549,0,0,0,3.586,14.8a16.882,16.882,0,0,0,5.29,3.283,39.462,39.462,0,0,0,8.361,2.375,59.42,59.42,0,0,0,10.409.886,59.421,59.421,0,0,0,10.409-.886,39.462,39.462,0,0,0,8.361-2.375,16.882,16.882,0,0,0,5.29-3.283,4.549,4.549,0,0,0,1.586-3.128,4.549,4.549,0,0,0-1.586-3.128,16.882,16.882,0,0,0-5.29-3.283,39.462,39.462,0,0,0-8.361-2.375A59.421,59.421,0,0,0,27.646,2m0-2C42.914,0,55.292,5.226,55.292,11.673S42.914,23.345,27.646,23.345,0,18.119,0,11.673,12.377,0,27.646,0Z" transform="translate(52.375 11.673) rotate(120)" fill="#00f2fe"/></g></g></g><path d="M409.964,30.28l-6.13,10.727,6.13,8.429h10.344l6.321-9.195-5.364-9.961Z" transform="translate(15.55 5.25)" fill="#61dafb"/><path d="M35.2,16.426a3.553,3.553,0,0,1,6.077,3.492l-.024.064a3.553,3.553,0,0,0,2.74,4.741l.117.02a3.553,3.553,0,0,1,0,7.007l-.117.02a3.553,3.553,0,0,0-2.74,4.741l.024.064A3.553,3.553,0,0,1,35.2,40.068h0a3.553,3.553,0,0,0-5.493,0h0a3.553,3.553,0,0,1-6.077-3.492l.024-.064a3.553,3.553,0,0,0-2.74-4.741l-.117-.02a3.553,3.553,0,0,1,0-7.007l.117-.02a3.553,3.553,0,0,0,2.74-4.741l-.024-.064a3.553,3.553,0,0,1,6.077-3.492h0a3.553,3.553,0,0,0,5.493,0Z" transform="translate(416.8 4.291) rotate(30)" fill="#00f2fe"/><path d="M7.921,1.122a1,1,0,0,1,1.621,0l6.776,9.383a1,1,0,0,1-.811,1.585H1.956a1,1,0,0,1-.811-1.585Z" transform="translate(438.745 35.529) rotate(90)" fill="#010326"/></g></svg>