<svg xmlns="http://www.w3.org/2000/svg" width="57.439" height="55.344" viewBox="0 0 57.439 55.344"><g transform="translate(-358.623 -4.291)"><path d="M18.8,1.8A33.45,33.45,0,0,0,6.207,3.983C3.489,5.131,1.8,6.647,1.8,7.938s1.689,2.807,4.407,3.955A33.45,33.45,0,0,0,18.8,14.077,33.45,33.45,0,0,0,31.4,11.893C34.114,10.746,35.8,9.23,35.8,7.938S34.114,5.131,31.4,3.983A33.45,33.45,0,0,0,18.8,1.8m0-1.8C29.185,0,37.6,3.554,37.6,7.938s-8.418,7.938-18.8,7.938S0,12.323,0,7.938,8.418,0,18.8,0Z" transform="translate(384.908 11.711) rotate(60)" fill="#00f2fe"/><path d="M18.729,1.8A33.887,33.887,0,0,0,6.175,3.937C3.476,5.056,1.8,6.523,1.8,7.766s1.676,2.71,4.375,3.829a33.887,33.887,0,0,0,12.554,2.137,33.887,33.887,0,0,0,12.554-2.137c2.7-1.119,4.375-2.586,4.375-3.829s-1.676-2.71-4.375-3.829A33.887,33.887,0,0,0,18.729,1.8m0-1.8C29.073,0,37.459,3.477,37.459,7.766s-8.385,7.766-18.729,7.766S0,12.055,0,7.766,8.385,0,18.729,0Z" transform="translate(368.09 24.125)" fill="#00f2fe"/><path d="M18.8,1.8A33.45,33.45,0,0,0,6.207,3.983C3.489,5.131,1.8,6.647,1.8,7.938s1.689,2.807,4.407,3.955A33.45,33.45,0,0,0,18.8,14.077,33.45,33.45,0,0,0,31.4,11.893C34.114,10.746,35.8,9.23,35.8,7.938S34.114,5.131,31.4,3.983A33.45,33.45,0,0,0,18.8,1.8m0-1.8C29.185,0,37.6,3.554,37.6,7.938s-8.418,7.938-18.8,7.938S0,12.323,0,7.938,8.418,0,18.8,0Z" transform="translate(403.709 19.649) rotate(120)" fill="#00f2fe"/><path d="M23.939,11.171a2.416,2.416,0,0,1,4.133,2.375l-.016.044a2.416,2.416,0,0,0,1.863,3.225l.08.013a2.416,2.416,0,0,1,0,4.765l-.08.013a2.416,2.416,0,0,0-1.863,3.225l.016.044a2.416,2.416,0,0,1-4.133,2.375h0a2.416,2.416,0,0,0-3.736,0h0a2.416,2.416,0,0,1-4.133-2.375l.016-.044a2.416,2.416,0,0,0-1.863-3.225l-.08-.013a2.416,2.416,0,0,1,0-4.765l.08-.013a2.416,2.416,0,0,0,1.863-3.225l-.016-.044A2.416,2.416,0,0,1,20.2,11.171h0a2.416,2.416,0,0,0,3.736,0Z" transform="translate(377.833 4.291) rotate(30)" fill="#00f2fe"/><path d="M5.128,1.122a1,1,0,0,1,1.621,0l3.983,5.515a1,1,0,0,1-.811,1.585H1.956a1,1,0,0,1-.811-1.585Z" transform="translate(392.758 25.535) rotate(90)" fill="#010326"/></g></svg>