<svg xmlns="http://www.w3.org/2000/svg" width="193.024" height="50.775" viewBox="0 0 193.024 50.775"><g transform="translate(-2.146 0)"><path d="M2.146,0V-20.59h9.106A5.844,5.844,0,0,1,13.877-20,6.789,6.789,0,0,1,15.95-18.43a7.39,7.39,0,0,1,1.363,2.2,6.629,6.629,0,0,1,.493,2.48,6.847,6.847,0,0,1-1,3.64,5.743,5.743,0,0,1-2.711,2.364L18.792,0H14.3l-4.2-6.9H6.148V0Zm4-10.411h5.017a2.116,2.116,0,0,0,1.029-.261,2.633,2.633,0,0,0,.827-.71,3.542,3.542,0,0,0,.551-1.059,4.1,4.1,0,0,0,.2-1.305,3.718,3.718,0,0,0-.232-1.334,3.481,3.481,0,0,0-.623-1.058,2.82,2.82,0,0,0-.9-.7,2.334,2.334,0,0,0-1.03-.247H6.148ZM27.666.29A8.432,8.432,0,0,1,24.36-.334a7.581,7.581,0,0,1-2.523-1.7,7.531,7.531,0,0,1-1.609-2.494,8,8,0,0,1-.566-2.987,8.464,8.464,0,0,1,.551-3.06,7.467,7.467,0,0,1,1.595-2.523,7.615,7.615,0,0,1,2.538-1.726,8.446,8.446,0,0,1,3.349-.638,8.237,8.237,0,0,1,3.321.638,7.636,7.636,0,0,1,2.494,1.711,7.271,7.271,0,0,1,1.566,2.494,8.306,8.306,0,0,1,.536,2.958q0,.377-.014.725a2.95,2.95,0,0,1-.073.58H23.78a4.509,4.509,0,0,0,.435,1.6,3.942,3.942,0,0,0,.9,1.189,3.916,3.916,0,0,0,1.247.754,4.1,4.1,0,0,0,1.45.261A4.48,4.48,0,0,0,30-3.118a2.993,2.993,0,0,0,1.406-1.493l3.335.928A6.78,6.78,0,0,1,32.06-.827,8.314,8.314,0,0,1,27.666.29ZM31.61-8.874a4.04,4.04,0,0,0-1.261-2.741,3.855,3.855,0,0,0-2.712-1.03,3.87,3.87,0,0,0-1.465.276,3.821,3.821,0,0,0-1.2.769,3.983,3.983,0,0,0-.856,1.189,4.19,4.19,0,0,0-.392,1.537ZM42.137.29a5.765,5.765,0,0,1-2.059-.363,4.949,4.949,0,0,1-1.653-1.015A4.724,4.724,0,0,1,37.338-2.61a4.611,4.611,0,0,1-.392-1.914,4.216,4.216,0,0,1,.479-1.987,4.555,4.555,0,0,1,1.334-1.552,6.613,6.613,0,0,1,2.045-1,8.919,8.919,0,0,1,2.61-.363,11.246,11.246,0,0,1,1.986.174,8.091,8.091,0,0,1,1.725.493v-.87a3.046,3.046,0,0,0-.855-2.32,3.557,3.557,0,0,0-2.537-.812,6.721,6.721,0,0,0-2.378.435,11.043,11.043,0,0,0-2.378,1.276l-1.189-2.465a11.219,11.219,0,0,1,6.322-1.943,7.407,7.407,0,0,1,5.09,1.61,5.9,5.9,0,0,1,1.813,4.655v4.727a1.366,1.366,0,0,0,.217.87.953.953,0,0,0,.711.29V0a8.652,8.652,0,0,1-1.711.2,2.591,2.591,0,0,1-1.7-.493,2.119,2.119,0,0,1-.74-1.305l-.087-.841A6.725,6.725,0,0,1,45.24-.406,7.079,7.079,0,0,1,42.137.29Zm1.1-2.842A5.063,5.063,0,0,0,45.11-2.9a3.4,3.4,0,0,0,1.377-.928,1.4,1.4,0,0,0,.638-1.1V-6.67a9.514,9.514,0,0,0-1.508-.421,8.122,8.122,0,0,0-1.566-.159,4.152,4.152,0,0,0-2.465.681,2.046,2.046,0,0,0-.957,1.725A2.076,2.076,0,0,0,41.383-3.2,2.737,2.737,0,0,0,43.239-2.552ZM53.679-7.6a8.269,8.269,0,0,1,.551-3.016,7.344,7.344,0,0,1,1.6-2.494,7.764,7.764,0,0,1,2.523-1.711,8.341,8.341,0,0,1,3.335-.638,7.993,7.993,0,0,1,4.249,1.073,6.853,6.853,0,0,1,2.624,2.813l-3.8,1.16a3.413,3.413,0,0,0-1.305-1.29,3.65,3.65,0,0,0-1.8-.45,3.7,3.7,0,0,0-1.566.333,3.849,3.849,0,0,0-1.262.928,4.3,4.3,0,0,0-.841,1.436,5.417,5.417,0,0,0-.3,1.856A5.2,5.2,0,0,0,58-5.742a4.678,4.678,0,0,0,.855,1.45,3.759,3.759,0,0,0,1.262.942,3.635,3.635,0,0,0,1.537.334,3.727,3.727,0,0,0,1.929-.522,2.936,2.936,0,0,0,1.233-1.276l3.8,1.16A6.387,6.387,0,0,1,66.033-.812,8.111,8.111,0,0,1,61.712.29a8.341,8.341,0,0,1-3.335-.638,7.651,7.651,0,0,1-2.523-1.726A7.656,7.656,0,0,1,54.244-4.6,8.116,8.116,0,0,1,53.679-7.6ZM80.1-.783a17.34,17.34,0,0,1-1.914.7,8.041,8.041,0,0,1-2.378.348,5.52,5.52,0,0,1-1.522-.2,3.348,3.348,0,0,1-1.247-.653,3.187,3.187,0,0,1-.855-1.16,4.2,4.2,0,0,1-.319-1.725v-8.729h-2V-15.2h2v-4.93h3.886v4.93h3.19v2.987h-3.19v7.424a1.382,1.382,0,0,0,.421,1.146,1.605,1.605,0,0,0,1.029.333,3.574,3.574,0,0,0,1.189-.2q.58-.2.928-.348ZM138.185,0V-20.59h8.729a5.844,5.844,0,0,1,2.624.594,6.789,6.789,0,0,1,2.074,1.566,7.39,7.39,0,0,1,1.363,2.2,6.629,6.629,0,0,1,.493,2.48A7.145,7.145,0,0,1,153-11.209a7.046,7.046,0,0,1-1.3,2.189,6.412,6.412,0,0,1-2.03,1.537,5.873,5.873,0,0,1-2.61.58h-4.872V0Zm4-10.411h4.64a2.292,2.292,0,0,0,1.842-.9,3.72,3.72,0,0,0,.74-2.436,4.011,4.011,0,0,0-.232-1.406,3.417,3.417,0,0,0-.609-1.058,2.424,2.424,0,0,0-.885-.653,2.592,2.592,0,0,0-1.029-.217h-4.466ZM155.846-21.17h3.886v16.3a1.918,1.918,0,0,0,.406,1.305,1.459,1.459,0,0,0,1.16.464,2.911,2.911,0,0,0,.768-.116,5.2,5.2,0,0,0,.8-.29l.522,2.958a7.515,7.515,0,0,1-1.827.58,9.967,9.967,0,0,1-1.885.2,3.891,3.891,0,0,1-2.827-.972,3.683,3.683,0,0,1-1-2.77ZM169.215.29a5.765,5.765,0,0,1-2.059-.363A4.949,4.949,0,0,1,165.5-1.088a4.724,4.724,0,0,1-1.087-1.523,4.611,4.611,0,0,1-.391-1.914,4.216,4.216,0,0,1,.479-1.987,4.555,4.555,0,0,1,1.334-1.552,6.613,6.613,0,0,1,2.044-1,8.919,8.919,0,0,1,2.61-.363,11.246,11.246,0,0,1,1.986.174,8.092,8.092,0,0,1,1.726.493v-.87a3.046,3.046,0,0,0-.855-2.32,3.557,3.557,0,0,0-2.538-.812,6.721,6.721,0,0,0-2.378.435,11.043,11.043,0,0,0-2.378,1.276l-1.189-2.465a11.219,11.219,0,0,1,6.322-1.943,7.407,7.407,0,0,1,5.089,1.61,5.9,5.9,0,0,1,1.813,4.655v4.727a1.366,1.366,0,0,0,.217.87.953.953,0,0,0,.71.29V0a8.652,8.652,0,0,1-1.711.2,2.591,2.591,0,0,1-1.7-.493,2.119,2.119,0,0,1-.74-1.305l-.087-.841a6.725,6.725,0,0,1-2.465,2.03A7.078,7.078,0,0,1,169.215.29Zm1.1-2.842a5.063,5.063,0,0,0,1.87-.348,3.4,3.4,0,0,0,1.378-.928,1.4,1.4,0,0,0,.638-1.1V-6.67a9.514,9.514,0,0,0-1.508-.421,8.122,8.122,0,0,0-1.566-.159,4.152,4.152,0,0,0-2.465.681,2.046,2.046,0,0,0-.957,1.725,2.076,2.076,0,0,0,.754,1.639A2.737,2.737,0,0,0,170.317-2.552Zm11.339,5.51a7.5,7.5,0,0,0,.957.217,5.215,5.215,0,0,0,.783.072,1.662,1.662,0,0,0,.7-.145,1.49,1.49,0,0,0,.58-.508,4.954,4.954,0,0,0,.522-1q.261-.638.551-1.6l-6-15.2h4l4.118,11.832L191.516-15.2h3.654L188.79,3.016a5.441,5.441,0,0,1-1.885,2.61A5.3,5.3,0,0,1,183.6,6.641a6.285,6.285,0,0,1-.943-.073,6.028,6.028,0,0,1-1-.246Z" transform="translate(0 36.835)" fill="#010326"/><g transform="translate(87.362 0)"><g transform="translate(0)"><path d="M23.569,2A42.191,42.191,0,0,0,7.681,4.757C4.124,6.259,2,8.2,2,9.951s2.124,3.692,5.681,5.194A42.191,42.191,0,0,0,23.569,17.9a42.191,42.191,0,0,0,15.888-2.757c3.557-1.5,5.681-3.444,5.681-5.194s-2.124-3.692-5.681-5.194A42.191,42.191,0,0,0,23.569,2m0-2C36.586,0,47.138,4.455,47.138,9.951S36.586,19.9,23.569,19.9,0,15.447,0,9.951,10.552,0,23.569,0Z" transform="translate(21.083 0) rotate(60)" fill="#00f2fe"/><path d="M23.479,2A42.739,42.739,0,0,0,7.643,4.7C4.109,6.164,2,8.047,2,9.735s2.109,3.571,5.643,5.036a42.739,42.739,0,0,0,15.836,2.7,42.739,42.739,0,0,0,15.836-2.7c3.533-1.465,5.643-3.348,5.643-5.036S42.848,6.164,39.315,4.7A42.739,42.739,0,0,0,23.479,2m0-2C36.446,0,46.958,4.359,46.958,9.735S36.446,19.47,23.479,19.47,0,15.112,0,9.735,10.512,0,23.479,0Z" transform="translate(0 15.562)" fill="#00f2fe"/><path d="M23.569,2A42.191,42.191,0,0,0,7.681,4.757C4.124,6.259,2,8.2,2,9.951s2.124,3.692,5.681,5.194A42.191,42.191,0,0,0,23.569,17.9a42.191,42.191,0,0,0,15.888-2.757c3.557-1.5,5.681-3.444,5.681-5.194s-2.124-3.692-5.681-5.194A42.191,42.191,0,0,0,23.569,2m0-2C36.586,0,47.138,4.455,47.138,9.951S36.586,19.9,23.569,19.9,0,15.447,0,9.951,10.552,0,23.569,0Z" transform="translate(44.652 9.951) rotate(120)" fill="#00f2fe"/></g></g></g></svg>