<?xml version="1.0" encoding="utf-8"?>
<!-- Generator: Adobe Illustrator 16.0.0, SVG Export Plug-In . SVG Version: 6.00 Build 0)  -->
<!DOCTYPE svg PUBLIC "-//W3C//DTD SVG 1.1//EN" "http://www.w3.org/Graphics/SVG/1.1/DTD/svg11.dtd">
<svg version="1.1" id="Layer_1" xmlns="http://www.w3.org/2000/svg" xmlns:xlink="http://www.w3.org/1999/xlink" x="0px" y="0px"
	 width="153.088px" height="55.344px" viewBox="0 0 153.088 55.344" enable-background="new 0 0 153.088 55.344"
	 xml:space="preserve">
<g transform="translate(-301.702 -4.291)">
	<path fill="#010326" d="M301.7,41.557v-16.33h7.224c0.721-0.007,1.434,0.155,2.082,0.472c0.623,0.304,1.182,0.726,1.645,1.242
		c0.46,0.515,0.826,1.106,1.081,1.748c0.255,0.625,0.388,1.292,0.391,1.967c0.012,1.018-0.263,2.018-0.793,2.887
		c-0.498,0.839-1.252,1.496-2.151,1.874l3.721,6.14h-3.561L308,36.083h-3.124v5.474H301.7z M304.876,33.3h3.979
		c0.285,0.001,0.566-0.069,0.816-0.207c0.255-0.14,0.479-0.331,0.656-0.563c0.192-0.253,0.34-0.538,0.437-0.84
		c0.109-0.334,0.164-0.684,0.161-1.035c0.004-0.361-0.059-0.72-0.184-1.058c-0.114-0.307-0.282-0.591-0.495-0.839
		c-0.198-0.23-0.44-0.418-0.713-0.552c-0.253-0.128-0.533-0.197-0.817-0.2h-3.84V33.3z M321.942,41.787
		c-0.898,0.013-1.791-0.156-2.622-0.495c-0.751-0.309-1.431-0.767-2-1.345c-0.553-0.568-0.987-1.24-1.277-1.979
		c-0.299-0.754-0.451-1.558-0.448-2.369c-0.005-0.828,0.143-1.65,0.437-2.426c0.283-0.745,0.713-1.425,1.265-2
		c0.571-0.588,1.256-1.054,2.013-1.369c0.842-0.348,1.746-0.52,2.656-0.506c0.903-0.015,1.8,0.157,2.633,0.506
		c0.743,0.314,1.415,0.774,1.977,1.352c0.544,0.567,0.967,1.241,1.242,1.978c0.283,0.75,0.427,1.545,0.425,2.346
		c0,0.201-0.004,0.393-0.011,0.576c-0.004,0.154-0.023,0.309-0.058,0.459h-9.314c0.034,0.441,0.149,0.871,0.34,1.27
		c0.175,0.356,0.417,0.677,0.713,0.943c0.289,0.26,0.625,0.463,0.989,0.6c0.368,0.138,0.757,0.208,1.15,0.207
		c0.607,0.002,1.205-0.152,1.736-0.448c0.5-0.251,0.896-0.671,1.116-1.185l2.645,0.736c-0.47,0.945-1.208,1.732-2.122,2.262
		C324.37,41.514,323.163,41.82,321.942,41.787z M325.07,34.52c-0.04-0.827-0.398-1.606-1-2.174
		c-0.583-0.542-1.355-0.834-2.151-0.816c-0.397-0.002-0.792,0.072-1.161,0.219c-0.354,0.142-0.678,0.349-0.955,0.61
		c-0.282,0.27-0.512,0.589-0.678,0.943c-0.18,0.383-0.286,0.797-0.311,1.219H325.07z M333.419,41.787
		c-0.557,0.004-1.11-0.094-1.633-0.288c-0.486-0.179-0.931-0.452-1.311-0.806c-0.365-0.34-0.659-0.751-0.863-1.207
		c-0.211-0.479-0.316-0.996-0.31-1.519c-0.005-0.548,0.125-1.089,0.379-1.575c0.255-0.485,0.617-0.905,1.059-1.229
		c0.49-0.356,1.039-0.624,1.621-0.793c0.672-0.198,1.369-0.295,2.07-0.288c0.528-0.001,1.056,0.045,1.576,0.139
		c0.469,0.078,0.928,0.209,1.368,0.391v-0.69c0.044-0.682-0.202-1.351-0.678-1.84c-0.563-0.467-1.284-0.698-2.013-0.644
		c-0.644,0-1.283,0.117-1.886,0.345c-0.668,0.259-1.301,0.599-1.886,1.012l-0.943-1.955c1.479-1.005,3.226-1.542,5.014-1.541
		c1.458-0.09,2.896,0.365,4.036,1.277c1.003,0.957,1.529,2.31,1.438,3.692v3.748c-0.021,0.243,0.04,0.486,0.173,0.69
		c0.147,0.151,0.351,0.235,0.563,0.229v2.621c-0.446,0.1-0.901,0.152-1.357,0.161c-0.48,0.031-0.956-0.106-1.345-0.391
		c-0.317-0.261-0.527-0.63-0.591-1.035l-0.069-0.667c-0.512,0.686-1.181,1.237-1.951,1.609
		C335.112,41.603,334.27,41.792,333.419,41.787z M334.293,39.533c0.508,0.002,1.011-0.092,1.484-0.276
		c0.419-0.151,0.795-0.403,1.093-0.735c0.299-0.193,0.488-0.519,0.506-0.875v-1.379c-0.39-0.145-0.792-0.256-1.2-0.334
		c-0.409-0.082-0.825-0.125-1.242-0.127c-0.692-0.029-1.376,0.159-1.955,0.541c-0.47,0.295-0.757,0.812-0.759,1.367
		c-0.009,0.502,0.212,0.98,0.6,1.301C333.23,39.364,333.755,39.549,334.293,39.533z M342.573,35.533
		c-0.005-0.818,0.144-1.629,0.437-2.393c0.282-0.74,0.713-1.415,1.265-1.983c0.57-0.58,1.25-1.042,2-1.357
		c0.837-0.348,1.738-0.521,2.645-0.506c1.181-0.036,2.348,0.259,3.369,0.851c0.893,0.53,1.615,1.304,2.082,2.231l-3.013,0.92
		c-0.246-0.429-0.604-0.782-1.035-1.023c-0.437-0.238-0.926-0.359-1.423-0.353c-0.429-0.003-0.853,0.087-1.242,0.265
		c-0.38,0.174-0.721,0.424-1,0.736c-0.295,0.331-0.522,0.718-0.669,1.136c-0.166,0.473-0.248,0.971-0.242,1.473
		c-0.006,0.502,0.08,1.002,0.253,1.474c0.155,0.421,0.385,0.812,0.679,1.149c0.277,0.317,0.618,0.572,1,0.748
		s0.798,0.266,1.219,0.265c0.538,0.004,1.067-0.14,1.529-0.414c0.422-0.229,0.764-0.582,0.978-1.012l3.013,0.92
		c-0.435,0.943-1.149,1.73-2.047,2.254c-1.038,0.605-2.226,0.909-3.427,0.874c-0.907,0.014-1.807-0.158-2.644-0.506
		c-0.752-0.317-1.432-0.783-2-1.369c-0.553-0.576-0.987-1.256-1.277-2c-0.299-0.758-0.452-1.566-0.45-2.381V35.533z M363.526,40.936
		c-0.495,0.214-1.002,0.398-1.518,0.553c-0.611,0.186-1.247,0.279-1.886,0.275c-0.408,0.003-0.814-0.051-1.207-0.16
		c-0.362-0.102-0.7-0.277-0.989-0.519c-0.294-0.251-0.526-0.565-0.679-0.92c-0.18-0.434-0.266-0.899-0.253-1.369v-6.922h-1.587
		v-2.369h1.587v-3.91h3.082v3.91h2.53v2.369h-2.53v5.883c-0.035,0.338,0.088,0.673,0.333,0.908c0.233,0.18,0.522,0.273,0.817,0.265
		c0.321,0,0.64-0.055,0.943-0.162c0.307-0.107,0.552-0.199,0.736-0.275L363.526,40.936z M409.596,41.557v-16.33h6.922
		c0.722-0.007,1.434,0.155,2.082,0.472c0.623,0.304,1.182,0.726,1.645,1.242c0.461,0.515,0.826,1.106,1.081,1.748
		c0.255,0.625,0.388,1.292,0.392,1.967c0,0.687-0.125,1.369-0.369,2.012c-0.236,0.637-0.587,1.226-1.035,1.737
		c-0.449,0.51-0.996,0.925-1.609,1.219c-0.646,0.311-1.354,0.468-2.07,0.46h-3.863v5.473H409.596z M412.769,33.3h3.68
		c0.572,0.006,1.113-0.259,1.461-0.713c0.418-0.554,0.627-1.237,0.59-1.93c0.006-0.38-0.057-0.758-0.184-1.116
		c-0.109-0.307-0.273-0.591-0.483-0.839c-0.19-0.224-0.431-0.401-0.7-0.518c-0.257-0.113-0.535-0.171-0.815-0.172h-3.542
		L412.769,33.3z M423.599,24.767h3.082v12.926c-0.023,0.373,0.092,0.74,0.322,1.035c0.236,0.254,0.574,0.389,0.92,0.367
		c0.207-0.003,0.411-0.034,0.609-0.092c0.217-0.059,0.429-0.137,0.633-0.23l0.414,2.347c-0.461,0.214-0.948,0.369-1.449,0.46
		c-0.494,0.102-0.996,0.155-1.5,0.161c-0.816,0.049-1.619-0.229-2.23-0.771c-0.56-0.592-0.848-1.389-0.795-2.201L423.599,24.767z
		 M434.2,41.787c-0.558,0.004-1.11-0.094-1.633-0.288c-0.485-0.179-0.932-0.452-1.312-0.806c-0.362-0.341-0.653-0.751-0.855-1.207
		c-0.211-0.478-0.317-0.995-0.311-1.518c-0.006-0.549,0.125-1.09,0.379-1.576c0.255-0.484,0.617-0.906,1.059-1.23
		c0.49-0.356,1.039-0.625,1.621-0.793c0.673-0.198,1.37-0.295,2.07-0.288c0.529-0.001,1.057,0.046,1.576,0.138
		c0.469,0.08,0.928,0.211,1.368,0.391V33.92c0.044-0.682-0.202-1.35-0.678-1.84c-0.562-0.467-1.283-0.698-2.013-0.644
		c-0.645,0-1.283,0.117-1.886,0.345c-0.668,0.259-1.302,0.599-1.887,1.013l-0.942-1.955c1.479-1.005,3.225-1.542,5.014-1.541
		c1.457-0.09,2.896,0.365,4.035,1.277c1.004,0.957,1.529,2.309,1.438,3.692v3.748c-0.021,0.243,0.04,0.486,0.173,0.69
		c0.147,0.152,0.352,0.235,0.564,0.229v2.621c-0.446,0.1-0.9,0.152-1.357,0.161c-0.48,0.031-0.956-0.106-1.345-0.391
		c-0.315-0.263-0.524-0.63-0.587-1.035l-0.069-0.667c-0.513,0.686-1.184,1.238-1.955,1.609
		C435.898,41.604,435.055,41.793,434.2,41.787z M435.074,39.533c0.508,0.002,1.012-0.092,1.484-0.276
		c0.419-0.151,0.794-0.403,1.092-0.735c0.299-0.193,0.487-0.519,0.506-0.875v-1.379c-0.391-0.145-0.791-0.256-1.2-0.334
		c-0.409-0.082-0.825-0.125-1.241-0.127c-0.693-0.029-1.377,0.159-1.955,0.541c-0.471,0.295-0.758,0.812-0.76,1.367
		c-0.009,0.502,0.213,0.98,0.6,1.301c0.412,0.35,0.939,0.535,1.479,0.518H435.074z M444.067,43.902
		c0.249,0.074,0.503,0.132,0.759,0.173c0.205,0.034,0.412,0.054,0.621,0.057c0.19,0.003,0.379-0.036,0.553-0.114
		c0.186-0.09,0.344-0.229,0.46-0.399c0.168-0.248,0.307-0.514,0.414-0.793c0.138-0.337,0.284-0.759,0.437-1.265l-4.76-12.053h3.174
		l3.266,9.385l2.9-9.385h2.899l-5.06,14.441c-0.278,0.824-0.8,1.547-1.495,2.07c-0.759,0.554-1.683,0.837-2.622,0.805
		c-0.25,0-0.5-0.02-0.748-0.057c-0.27-0.045-0.535-0.111-0.793-0.201L444.067,43.902z"/>
	<path fill="#00F2FE" d="M392.75,28.892c-2.074-3.767-4.854-7.099-8.188-9.814c-2.354-1.78-4.511-2.485-5.629-1.839
		s-1.586,2.866-1.222,5.794c0.684,4.246,2.179,8.319,4.405,11.999c2.073,3.77,4.855,7.104,8.191,9.819
		c2.35,1.776,4.506,2.479,5.625,1.833s1.588-2.863,1.225-5.788C396.474,36.648,394.977,32.572,392.75,28.892 M394.308,27.992
		c5.191,8.994,6.322,18.059,2.525,20.25c-3.797,2.192-11.084-3.32-16.275-12.313c-5.19-8.99-6.322-18.057-2.525-20.25
		C381.831,13.487,389.117,19.001,394.308,27.992z"/>
	<path fill="#00F2FE" d="M386.819,25.925c-4.282-0.087-8.542,0.638-12.554,2.137c-2.699,1.119-4.375,2.586-4.375,3.829
		c0,1.243,1.676,2.71,4.375,3.829c4.012,1.499,8.272,2.225,12.554,2.138c4.282,0.087,8.542-0.639,12.554-2.138
		c2.7-1.118,4.375-2.586,4.375-3.829c0-1.243-1.676-2.71-4.375-3.829C395.361,26.562,391.101,25.837,386.819,25.925 M386.819,24.125
		c10.344,0,18.729,3.477,18.729,7.766c0,4.289-8.385,7.766-18.729,7.766c-10.344,0-18.73-3.478-18.73-7.766
		C368.09,27.602,376.475,24.125,386.819,24.125z"/>
	<path fill="#00F2FE" d="M392.75,35.03c2.227-3.679,3.723-7.752,4.406-11.998c0.365-2.928-0.104-5.148-1.222-5.794
		s-3.275,0.059-5.628,1.839c-3.336,2.714-6.115,6.046-8.188,9.813c-2.228,3.681-3.725,7.757-4.409,12.004
		c-0.364,2.924,0.106,5.142,1.225,5.788c1.119,0.646,3.274-0.057,5.625-1.833C387.896,42.135,390.678,38.8,392.75,35.03
		 M394.308,35.93c-5.191,8.994-12.477,14.505-16.274,12.313c-3.797-2.191-2.666-11.259,2.526-20.25
		c5.19-8.991,12.477-14.505,16.273-12.312C400.633,17.873,399.5,26.939,394.308,35.93z"/>
	<path fill="#00F2FE" d="M392.979,25.935c1.248-0.472,2.642,0.158,3.114,1.406c0.365,0.967,0.074,2.059-0.723,2.717l-0.035,0.03
		c-1.029,0.85-1.173,2.373-0.322,3.402c0.097,0.117,0.205,0.225,0.322,0.322l0.063,0.052c1.029,0.85,1.175,2.372,0.325,3.401
		c-0.655,0.793-1.742,1.084-2.707,0.725l-0.075-0.028c-1.251-0.466-2.643,0.17-3.108,1.42c-0.054,0.144-0.093,0.291-0.118,0.441
		l-0.008,0.046c-0.222,1.316-1.467,2.203-2.783,1.982c-1.02-0.172-1.816-0.972-1.984-1.992l0,0c-0.217-1.316-1.46-2.207-2.776-1.99
		c-0.156,0.025-0.31,0.066-0.458,0.123l0,0c-1.249,0.471-2.643-0.158-3.114-1.406c-0.365-0.968-0.075-2.06,0.722-2.718l0.036-0.03
		c1.028-0.85,1.173-2.373,0.322-3.401c-0.098-0.117-0.206-0.226-0.323-0.323l-0.063-0.051c-1.029-0.85-1.174-2.373-0.324-3.401
		c0.655-0.793,1.742-1.085,2.707-0.725l0.075,0.029c1.251,0.466,2.642-0.17,3.107-1.42c0.054-0.143,0.093-0.291,0.118-0.441
		l0.008-0.046c0.226-1.315,1.475-2.199,2.789-1.974c1.014,0.173,1.807,0.969,1.976,1.982l0,0c0.218,1.316,1.46,2.208,2.776,1.991
		c0.157-0.026,0.311-0.067,0.459-0.123L392.979,25.935z"/>
	<path fill="#FFFFFF" d="M391.637,30.663c0.447,0.323,0.548,0.948,0.225,1.396c-0.063,0.086-0.139,0.163-0.225,0.225l-5.516,3.983
		c-0.447,0.322-1.072,0.221-1.396-0.227c-0.123-0.17-0.188-0.375-0.188-0.585v-7.965c0-0.553,0.448-1,1-1
		c0.21,0,0.415,0.066,0.585,0.189L391.637,30.663z"/>
</g>
</svg>
