<svg xmlns="http://www.w3.org/2000/svg" width="57.439" height="55.344" viewBox="0 0 57.439 55.344"><g transform="translate(-358.623 -4.291)"><path d="M18.8,2.6A33.121,33.121,0,0,0,6.518,4.72C3.826,5.857,2.6,7.185,2.6,7.938s1.226,2.081,3.918,3.218A33.121,33.121,0,0,0,18.8,13.277a33.122,33.122,0,0,0,12.283-2.12C33.777,10.02,35,8.691,35,7.938S33.777,5.857,31.085,4.72A33.122,33.122,0,0,0,18.8,2.6m0-2.6C29.185,0,37.6,3.554,37.6,7.938s-8.418,7.938-18.8,7.938S0,12.323,0,7.938,8.418,0,18.8,0Z" transform="translate(384.908 11.711) rotate(60)" fill="#00f2fe"/><path d="M18.729,2.6A33.565,33.565,0,0,0,6.482,4.676C3.815,5.782,2.6,7.053,2.6,7.766s1.215,1.984,3.882,3.09a33.565,33.565,0,0,0,12.248,2.076,33.565,33.565,0,0,0,12.248-2.076c2.667-1.106,3.882-2.377,3.882-3.09s-1.215-1.984-3.882-3.09A33.565,33.565,0,0,0,18.729,2.6m0-2.6C29.073,0,37.459,3.477,37.459,7.766s-8.385,7.766-18.729,7.766S0,12.055,0,7.766,8.385,0,18.729,0Z" transform="translate(368.09 24.125)" fill="#00f2fe"/><path d="M18.8,2.6A33.121,33.121,0,0,0,6.518,4.72C3.826,5.857,2.6,7.185,2.6,7.938s1.226,2.081,3.918,3.218A33.121,33.121,0,0,0,18.8,13.277a33.122,33.122,0,0,0,12.283-2.12C33.777,10.02,35,8.691,35,7.938S33.777,5.857,31.085,4.72A33.122,33.122,0,0,0,18.8,2.6m0-2.6C29.185,0,37.6,3.554,37.6,7.938s-8.418,7.938-18.8,7.938S0,12.323,0,7.938,8.418,0,18.8,0Z" transform="translate(403.709 19.649) rotate(120)" fill="#00f2fe"/><path d="M23.939,11.171a2.416,2.416,0,0,1,4.133,2.375l-.016.044a2.416,2.416,0,0,0,1.863,3.225l.08.013a2.416,2.416,0,0,1,0,4.765l-.08.013a2.416,2.416,0,0,0-1.863,3.225l.016.044a2.416,2.416,0,0,1-4.133,2.375h0a2.416,2.416,0,0,0-3.736,0h0a2.416,2.416,0,0,1-4.133-2.375l.016-.044a2.416,2.416,0,0,0-1.863-3.225l-.08-.013a2.416,2.416,0,0,1,0-4.765l.08-.013a2.416,2.416,0,0,0,1.863-3.225l-.016-.044A2.416,2.416,0,0,1,20.2,11.171h0a2.416,2.416,0,0,0,3.736,0Z" transform="translate(377.833 4.291) rotate(30)" fill="#00f2fe"/><path d="M5.128,1.122a1,1,0,0,1,1.621,0l3.983,5.515a1,1,0,0,1-.811,1.585H1.956a1,1,0,0,1-.811-1.585Z" transform="translate(392.758 25.535) rotate(90)" fill="#010326"/></g></svg>