<svg xmlns="http://www.w3.org/2000/svg" xmlns:xlink="http://www.w3.org/1999/xlink" version="1.1" id="Layer_1" x="0px" y="0px" width="300px" height="300px" viewBox="0 0 300 300" enable-background="new 0 0 300 300" xml:space="preserve">
    <g xmlns="http://www.w3.org/2000/svg">
        <linearGradient id="SVGID_1_" gradientUnits="userSpaceOnUse" x1="149.9995" y1="132.7441" x2="149.9995" y2="225.1152">
            <stop offset="0.2836" style="stop-color:#FF4238"/>
            <stop offset="1" style="stop-color:#C1272D"/>
        </linearGradient>
        <path fill="url(#SVGID_1_)" d="M197.973,180.739v44.376h-95.945v-44.376c0-26.504,21.445-47.995,47.951-47.995   c13.227,0,25.249,5.385,33.928,14.063C192.588,155.488,197.973,167.51,197.973,180.739z"/>
        <linearGradient id="SVGID_2_" gradientUnits="userSpaceOnUse" x1="150" y1="186.9062" x2="150" y2="225.1152">
            <stop offset="0" style="stop-color:#FCB500"/>
            <stop offset="0.9848" style="stop-color:#D68811"/>
        </linearGradient>
        <path fill="url(#SVGID_2_)" d="M160.834,214.283c0,5.981-4.85,10.832-10.834,10.832l0,0c-5.983,0-10.833-4.851-10.833-10.832   v-16.546c0-5.98,4.85-10.831,10.833-10.831l0,0c5.985,0,10.834,4.851,10.834,10.831V214.283z"/>
        <linearGradient id="SVGID_3_" gradientUnits="userSpaceOnUse" x1="148.6309" y1="225.1152" x2="148.6309" y2="250.8301">
            <stop offset="0.3485" style="stop-color:#4D4D4D"/>
            <stop offset="0.9213" style="stop-color:#333333"/>
        </linearGradient>
        <path fill="url(#SVGID_3_)" d="M212.225,237.973c0,7.101-5.758,12.857-12.859,12.857H97.897c-7.103,0-12.86-5.757-12.86-12.857   c0-3.526,1.441-6.776,3.763-9.098c2.321-2.321,5.521-3.76,9.097-3.76h101.468C206.467,225.115,212.225,230.872,212.225,237.973z"/>
        <linearGradient id="SVGID_4_" gradientUnits="userSpaceOnUse" x1="149.9995" y1="49.1699" x2="149.9995" y2="103.3389">
            <stop offset="0.2836" style="stop-color:#FFA738"/>
            <stop offset="1" style="stop-color:#C1272D"/>
        </linearGradient>
        <path fill="url(#SVGID_4_)" d="M156.963,55.389V97.12c0,3.434-3.109,6.219-6.963,6.219c-3.853,0-6.963-2.785-6.963-6.219V55.389   c0-3.434,3.11-6.219,6.963-6.219C153.854,49.17,156.963,51.955,156.963,55.389z"/>
        <g>
            <linearGradient id="SVGID_5_" gradientUnits="userSpaceOnUse" x1="244.6895" y1="103.3389" x2="244.6895" y2="146.0527">
                <stop offset="0.2836" style="stop-color:#FFA738"/>
                <stop offset="1" style="stop-color:#C1272D"/>
            </linearGradient>
            <path fill="url(#SVGID_5_)" d="M264.367,114.864l-29.51,29.509c-2.426,2.428-6.596,2.199-9.32-0.525s-2.951-6.893-0.525-9.322    l29.51-29.507c2.426-2.428,6.596-2.199,9.32,0.525C266.564,108.269,266.791,112.437,264.367,114.864z"/>
            <linearGradient id="SVGID_6_" gradientUnits="userSpaceOnUse" x1="55.3149" y1="103.3379" x2="55.3149" y2="146.0498">
                <stop offset="0.2836" style="stop-color:#FFA738"/>
                <stop offset="1" style="stop-color:#C1272D"/>
            </linearGradient>
            <path fill="url(#SVGID_6_)" d="M45.483,105.017l29.509,29.509c2.43,2.426,2.199,6.596-0.525,9.319    c-2.725,2.725-6.891,2.952-9.32,0.526l-29.509-29.51c-2.43-2.425-2.199-6.595,0.525-9.319    C38.888,102.817,43.053,102.591,45.483,105.017z"/>
        </g>
        <g>
            <linearGradient id="SVGID_7_" gradientUnits="userSpaceOnUse" x1="260.627" y1="199.0479" x2="260.627" y2="212.9736">
                <stop offset="0.2836" style="stop-color:#FFA738"/>
                <stop offset="1" style="stop-color:#C1272D"/>
            </linearGradient>
            <path fill="url(#SVGID_7_)" d="M281.492,212.974h-41.73c-3.436,0-6.219-3.11-6.219-6.963c0-3.854,2.783-6.963,6.219-6.963h41.73    c3.436,0,6.219,3.109,6.219,6.963C287.711,209.863,284.928,212.974,281.492,212.974z"/>
            <linearGradient id="SVGID_8_" gradientUnits="userSpaceOnUse" x1="39.373" y1="199.0479" x2="39.373" y2="212.9736">
                <stop offset="0.2836" style="stop-color:#FFA738"/>
                <stop offset="1" style="stop-color:#C1272D"/>
            </linearGradient>
            <path fill="url(#SVGID_8_)" d="M60.238,212.974h-41.73c-3.436,0-6.219-3.11-6.219-6.963c0-3.854,2.783-6.963,6.219-6.963h41.73    c3.436,0,6.22,3.109,6.22,6.963C66.458,209.863,63.674,212.974,60.238,212.974z"/>
        </g>
    </g>
    </svg>