<?xml version="1.0" encoding="utf-8"?>
<!-- Generator: Adobe Illustrator 16.0.0, SVG Export Plug-In . SVG Version: 6.00 Build 0)  -->
<!DOCTYPE svg PUBLIC "-//W3C//DTD SVG 1.1//EN" "http://www.w3.org/Graphics/SVG/1.1/DTD/svg11.dtd">
<svg version="1.1" id="Layer_1" xmlns="http://www.w3.org/2000/svg" xmlns:xlink="http://www.w3.org/1999/xlink" x="0px" y="0px"
	 width="193.023px" height="50.775px" viewBox="0 0 193.023 50.775" enable-background="new 0 0 193.023 50.775"
	 xml:space="preserve">
<g transform="translate(-2.146 0)">
	<path fill="#010326" d="M2.146,36.835v-20.59h9.105c0.909-0.01,1.808,0.192,2.625,0.59c0.786,0.385,1.49,0.918,2.073,1.57
		c0.58,0.647,1.042,1.393,1.363,2.2c0.321,0.787,0.489,1.629,0.493,2.479c0.014,1.283-0.333,2.545-1,3.641
		c-0.628,1.058-1.578,1.887-2.711,2.363l4.696,7.746H14.3L10.1,29.935H6.148v6.899H2.146z M6.146,26.424h5.017
		c0.359,0.002,0.714-0.088,1.029-0.261c0.322-0.176,0.604-0.418,0.827-0.71c0.242-0.319,0.429-0.678,0.551-1.059
		c0.137-0.422,0.204-0.862,0.2-1.306c0.005-0.455-0.074-0.907-0.232-1.334c-0.144-0.387-0.354-0.745-0.623-1.058
		c-0.249-0.292-0.556-0.53-0.899-0.7c-0.32-0.16-0.673-0.244-1.03-0.247H6.148L6.146,26.424z M27.666,37.125
		c-1.133,0.017-2.257-0.195-3.306-0.624c-0.947-0.39-1.806-0.969-2.523-1.7c-0.696-0.716-1.243-1.563-1.608-2.493
		c-0.378-0.951-0.57-1.965-0.566-2.987c-0.007-1.045,0.18-2.083,0.551-3.061c0.356-0.939,0.899-1.798,1.596-2.522
		c0.72-0.742,1.583-1.329,2.538-1.726c1.061-0.438,2.2-0.655,3.349-0.639c1.139-0.02,2.27,0.198,3.321,0.639
		c0.937,0.397,1.785,0.979,2.493,1.711c0.688,0.716,1.22,1.564,1.566,2.493c0.357,0.945,0.539,1.948,0.536,2.958
		c0,0.252-0.005,0.493-0.014,0.726c-0.006,0.195-0.03,0.39-0.073,0.58H23.78c0.045,0.556,0.192,1.098,0.435,1.6
		c0.222,0.45,0.527,0.854,0.9,1.189c0.365,0.327,0.788,0.583,1.247,0.754c0.464,0.174,0.955,0.262,1.45,0.261
		c0.766,0.001,1.519-0.193,2.188-0.566c0.63-0.316,1.128-0.845,1.406-1.492l3.335,0.928c-0.593,1.195-1.525,2.188-2.681,2.855
		C30.727,36.78,29.206,37.167,27.666,37.125z M31.61,27.961c-0.051-1.042-0.503-2.024-1.261-2.74
		c-0.735-0.684-1.709-1.054-2.712-1.03c-0.502-0.004-1,0.09-1.466,0.275c-0.444,0.18-0.852,0.44-1.199,0.77
		c-0.356,0.34-0.647,0.743-0.856,1.188c-0.228,0.483-0.36,1.005-0.392,1.537H31.61z M42.137,37.125
		c-0.703,0.006-1.401-0.117-2.06-0.362c-0.612-0.227-1.174-0.571-1.653-1.016c-0.46-0.43-0.829-0.947-1.087-1.521
		c-0.266-0.603-0.399-1.256-0.392-1.914c-0.006-0.691,0.159-1.374,0.479-1.987c0.321-0.611,0.777-1.143,1.334-1.552
		c0.619-0.449,1.312-0.788,2.046-1c0.847-0.25,1.727-0.372,2.609-0.363c0.666-0.001,1.331,0.058,1.986,0.174
		c0.592,0.101,1.17,0.266,1.725,0.493v-0.87c0.056-0.859-0.255-1.702-0.854-2.319c-0.709-0.59-1.618-0.881-2.537-0.813
		c-0.813,0-1.618,0.147-2.378,0.435c-0.842,0.327-1.641,0.756-2.378,1.276l-1.189-2.465c1.864-1.269,4.067-1.945,6.322-1.943
		c1.838-0.114,3.652,0.46,5.09,1.61c1.264,1.207,1.928,2.911,1.813,4.655v4.727c-0.028,0.307,0.049,0.612,0.217,0.87
		c0.186,0.192,0.443,0.297,0.711,0.29v3.306c-0.563,0.124-1.136,0.19-1.711,0.2c-0.607,0.04-1.209-0.134-1.7-0.493
		c-0.397-0.33-0.661-0.794-0.74-1.305l-0.087-0.841c-0.646,0.865-1.49,1.563-2.463,2.033C44.272,36.893,43.211,37.132,42.137,37.125
		z M43.237,34.283c0.641,0.004,1.276-0.114,1.873-0.348c0.528-0.191,1.002-0.51,1.377-0.929c0.377-0.243,0.613-0.652,0.638-1.1
		v-1.742c-0.49-0.182-0.994-0.322-1.508-0.421c-0.516-0.104-1.04-0.156-1.566-0.159c-0.872-0.038-1.735,0.2-2.465,0.682
		c-0.593,0.373-0.954,1.023-0.957,1.725c-0.013,0.635,0.265,1.24,0.754,1.644c0.518,0.438,1.179,0.67,1.856,0.648H43.237z
		 M53.679,29.235c-0.007-1.031,0.181-2.054,0.551-3.017c0.358-0.931,0.902-1.779,1.6-2.493c0.72-0.731,1.577-1.313,2.523-1.711
		c1.056-0.439,2.191-0.656,3.335-0.639c1.488-0.045,2.96,0.327,4.249,1.073c1.125,0.668,2.035,1.645,2.624,2.813l-3.8,1.159
		c-0.31-0.541-0.761-0.987-1.306-1.29c-0.551-0.302-1.171-0.457-1.8-0.449c-0.54-0.005-1.074,0.108-1.566,0.333
		c-0.479,0.219-0.909,0.535-1.262,0.928c-0.371,0.419-0.656,0.907-0.841,1.436c-0.207,0.597-0.309,1.225-0.3,1.856
		c-0.01,0.633,0.096,1.263,0.313,1.857c0.195,0.531,0.485,1.022,0.855,1.45c0.35,0.399,0.779,0.721,1.262,0.942
		c0.481,0.222,1.007,0.336,1.537,0.334c0.679,0.005,1.346-0.176,1.929-0.522c0.533-0.288,0.964-0.733,1.233-1.275l3.8,1.16
		c-0.549,1.189-1.451,2.182-2.583,2.842c-1.309,0.764-2.806,1.146-4.321,1.102c-1.144,0.019-2.278-0.198-3.335-0.638
		c-0.948-0.399-1.807-0.987-2.522-1.726c-0.698-0.729-1.245-1.587-1.61-2.526C53.868,31.28,53.676,30.261,53.679,29.235z
		 M80.1,36.052c-0.624,0.271-1.263,0.505-1.914,0.7c-0.771,0.234-1.572,0.353-2.378,0.349c-0.515,0.004-1.026-0.063-1.522-0.2
		c-0.457-0.127-0.882-0.35-1.247-0.653c-0.37-0.316-0.662-0.713-0.854-1.16c-0.227-0.546-0.336-1.134-0.319-1.725v-8.729h-2v-2.998
		h2v-4.93h3.886v4.93h3.19v2.987h-3.19v7.424c-0.045,0.427,0.11,0.851,0.421,1.146c0.295,0.227,0.658,0.345,1.029,0.333
		c0.405,0.001,0.807-0.066,1.189-0.2c0.387-0.133,0.695-0.249,0.928-0.348L80.1,36.052z M138.185,36.835v-20.59h8.729
		c0.909-0.009,1.808,0.194,2.624,0.594c0.786,0.384,1.49,0.916,2.074,1.566c0.58,0.647,1.042,1.393,1.363,2.2
		c0.321,0.787,0.489,1.629,0.492,2.479c0,0.869-0.158,1.729-0.468,2.541c-0.297,0.803-0.737,1.545-1.3,2.189
		c-0.567,0.643-1.258,1.165-2.03,1.537c-0.813,0.392-1.707,0.59-2.609,0.58h-4.872v6.902H138.185z M142.185,26.424h4.64
		c0.722,0.007,1.404-0.326,1.842-0.899c0.525-0.7,0.788-1.563,0.74-2.437c0.007-0.479-0.071-0.955-0.232-1.405
		c-0.138-0.387-0.344-0.745-0.608-1.059c-0.241-0.282-0.544-0.506-0.885-0.652c-0.325-0.143-0.675-0.216-1.029-0.218h-4.466
		L142.185,26.424z M155.846,15.665h3.886v16.3c-0.029,0.471,0.115,0.935,0.406,1.306c0.297,0.32,0.723,0.491,1.159,0.464
		c0.261-0.004,0.519-0.043,0.769-0.116c0.274-0.074,0.542-0.172,0.8-0.29l0.522,2.958c-0.582,0.271-1.196,0.466-1.827,0.58
		c-0.621,0.126-1.252,0.193-1.885,0.2c-1.034,0.065-2.052-0.284-2.827-0.973c-0.704-0.743-1.066-1.747-1-2.77L155.846,15.665z
		 M169.215,37.125c-0.702,0.006-1.4-0.117-2.059-0.362c-0.613-0.227-1.177-0.571-1.656-1.016c-0.46-0.43-0.829-0.948-1.087-1.522
		c-0.266-0.604-0.398-1.256-0.391-1.914c-0.006-0.692,0.158-1.374,0.479-1.987c0.321-0.612,0.777-1.143,1.334-1.552
		c0.619-0.449,1.311-0.787,2.044-1c0.848-0.25,1.728-0.372,2.61-0.363c0.666-0.001,1.33,0.058,1.986,0.174
		c0.592,0.1,1.17,0.266,1.726,0.493v-0.87c0.056-0.859-0.255-1.702-0.854-2.32c-0.709-0.589-1.619-0.88-2.538-0.812
		c-0.813,0-1.618,0.147-2.378,0.435c-0.842,0.327-1.641,0.756-2.379,1.276l-1.188-2.465c1.864-1.269,4.067-1.945,6.322-1.943
		c1.837-0.114,3.651,0.46,5.089,1.61c1.264,1.207,1.928,2.911,1.813,4.655v4.727c-0.027,0.307,0.049,0.612,0.218,0.87
		c0.186,0.191,0.442,0.297,0.71,0.29v3.307c-0.563,0.124-1.136,0.19-1.711,0.2c-0.607,0.04-1.209-0.134-1.7-0.493
		c-0.397-0.33-0.661-0.794-0.74-1.305l-0.087-0.841c-0.646,0.864-1.492,1.561-2.465,2.029
		C171.345,36.89,170.287,37.13,169.215,37.125z M170.315,34.283c0.64,0.003,1.274-0.115,1.87-0.348
		c0.528-0.191,1.002-0.51,1.378-0.929c0.376-0.243,0.613-0.652,0.638-1.1v-1.742c-0.49-0.182-0.994-0.322-1.508-0.421
		c-0.516-0.104-1.04-0.156-1.566-0.159c-0.872-0.038-1.735,0.2-2.465,0.682c-0.594,0.373-0.954,1.023-0.957,1.725
		c-0.012,0.633,0.267,1.236,0.754,1.639c0.518,0.441,1.18,0.674,1.858,0.653H170.315z M181.654,39.793
		c0.313,0.094,0.634,0.166,0.957,0.217c0.259,0.044,0.521,0.068,0.783,0.072c0.241,0.003,0.479-0.046,0.7-0.145
		c0.234-0.116,0.435-0.291,0.579-0.508c0.212-0.313,0.387-0.648,0.522-1c0.174-0.426,0.357-0.959,0.551-1.601l-6-15.2h4
		l4.118,11.832l3.651-11.826h3.653l-6.38,18.217c-0.351,1.04-1.008,1.95-1.885,2.609c-0.957,0.698-2.121,1.056-3.305,1.016
		c-0.316-0.001-0.631-0.025-0.943-0.073c-0.34-0.054-0.674-0.136-1-0.246L181.654,39.793z"/>
	<g transform="translate(87.362 0)">
		<g transform="translate(0)">
			<path fill="#00F2FE" d="M31.136,21.411c-2.616-4.752-6.124-8.956-10.332-12.381c-3.079-2.329-5.822-3.198-7.339-2.322
				c-1.517,0.875-2.135,3.686-1.657,7.517c0.862,5.356,2.749,10.495,5.558,15.137c2.616,4.753,6.124,8.957,10.332,12.381
				c3.077,2.331,5.823,3.198,7.339,2.323s2.135-3.686,1.657-7.517C35.831,31.192,33.944,26.052,31.136,21.411 M32.867,20.411
				c6.509,11.273,7.927,22.64,3.167,25.388s-13.893-4.164-20.4-15.438C9.125,19.089,7.705,7.723,12.465,4.975
				S26.359,9.138,32.867,20.411z"/>
			<path fill="#00F2FE" d="M23.479,17.562c-5.401-0.109-10.775,0.807-15.836,2.7C4.109,21.726,2,23.609,2,25.297
				c0,1.688,2.109,3.571,5.643,5.036c5.061,1.894,10.435,2.81,15.836,2.7c5.402,0.109,10.776-0.807,15.837-2.7
				c3.532-1.465,5.643-3.348,5.643-5.036c0-1.688-2.11-3.57-5.643-5.034C34.254,18.369,28.881,17.453,23.479,17.562 M23.479,15.562
				c12.968,0,23.479,4.358,23.479,9.734s-10.512,9.735-23.479,9.735C10.512,35.032,0,30.674,0,25.297S10.512,15.562,23.479,15.562z"
				/>
			<path fill="#00F2FE" d="M31.136,29.362c2.808-4.642,4.694-9.781,5.556-15.138c0.479-3.831-0.141-6.642-1.657-7.517
				c-1.517-0.876-4.26-0.007-7.339,2.322c-4.207,3.425-7.715,7.629-10.33,12.382c-2.808,4.643-4.694,9.782-5.556,15.139
				c-0.479,3.83,0.142,6.642,1.657,7.517s4.26,0.007,7.339-2.323C25.013,38.319,28.521,34.115,31.136,29.362 M32.867,30.362
				c-6.508,11.273-15.643,18.185-20.402,15.437s-3.34-14.113,3.169-25.387c6.508-11.272,15.641-18.185,20.4-15.437
				S39.376,19.09,32.867,30.362z"/>
		</g>
	</g>
</g>
<path fill="#00F2FE" d="M117.205,17.393c1.713-0.648,3.628,0.216,4.277,1.931c0.5,1.328,0.1,2.828-0.994,3.731l-0.048,0.04
	c-1.413,1.168-1.611,3.258-0.441,4.671c0.133,0.162,0.281,0.31,0.441,0.443l0.087,0.07c1.413,1.167,1.614,3.258,0.445,4.671
	c-0.898,1.089-2.393,1.488-3.717,0.995l-0.103-0.038c-1.718-0.641-3.628,0.232-4.268,1.948c-0.074,0.198-0.128,0.399-0.163,0.606
	l-0.01,0.063c-0.305,1.808-2.015,3.024-3.821,2.723c-1.401-0.236-2.494-1.336-2.726-2.736l0,0c-0.297-1.808-2.003-3.03-3.811-2.732
	c-0.215,0.034-0.427,0.091-0.63,0.169l0,0c-1.714,0.646-3.629-0.217-4.275-1.932c-0.501-1.328-0.104-2.829,0.991-3.731l0.049-0.041
	c1.412-1.166,1.612-3.259,0.442-4.67c-0.134-0.161-0.281-0.311-0.442-0.443l-0.087-0.07c-1.414-1.168-1.612-3.259-0.445-4.67
	c0.899-1.089,2.393-1.49,3.717-0.996l0.104,0.039c1.717,0.641,3.628-0.233,4.267-1.95c0.074-0.196,0.127-0.399,0.162-0.605
	l0.01-0.063c0.312-1.806,2.026-3.02,3.83-2.71c1.394,0.237,2.482,1.331,2.714,2.721l0,0c0.299,1.807,2.004,3.032,3.811,2.734
	c0.217-0.036,0.428-0.092,0.631-0.169H117.205z"/>
<path fill="#FFFFFF" d="M115.362,23.885c0.614,0.443,0.755,1.301,0.311,1.917c-0.087,0.117-0.192,0.222-0.311,0.309l-7.573,5.469
	c-0.614,0.441-1.472,0.305-1.917-0.312c-0.169-0.232-0.258-0.515-0.258-0.804V19.528c0-0.759,0.615-1.373,1.373-1.373
	c0.288,0,0.569,0.091,0.804,0.26L115.362,23.885z"/>
</svg>
