<svg width="467" height="158" viewBox="0 0 467 158" fill="none" xmlns="http://www.w3.org/2000/svg"><path d="M134.05 33.86L79.1 2.13a16.07 16.07 0 00-15.99 0 16.03 16.03 0 00-7.99 13.84v4.14l-3.58-2.07a16.07 16.07 0 00-15.99 0 16.033 16.033 0 00-7.99 13.85v4.14l-3.58-2.07a16.07 16.07 0 00-15.99 0A16.033 16.033 0 000 47.81v99.42c0 2.86 1.66 5.52 4.24 6.76a7.55 7.55 0 007.93-.86l27.25-21.49 42.02 24.26c1.16.67 2.46 1 3.76 1 1.3 0 2.6-.34 3.76-1a7.534 7.534 0 003.76-6.51V89.56c0-9.82-5.28-18.96-13.78-23.87l-13.78-7.96V15.98c0-2.12 1.14-4.1 2.98-5.16a5.983 5.983 0 015.96 0l54.95 31.72c5.41 3.12 8.77 8.95 8.77 15.19v74.5c0 2.12-1.14 4.1-2.98 5.16l-14.56 8.41V73.64c0-9.82-5.28-18.96-13.78-23.87L72.67 30.24v11.57l28.82 16.64a17.58 17.58 0 018.77 15.19v76.49c0 2.67 1.44 5.17 3.76 6.51 1.16.67 2.46 1 3.76 1 1.3 0 2.6-.34 3.76-1l18.32-10.58c4.93-2.85 7.99-8.15 7.99-13.85v-74.5c-.02-9.79-5.3-18.94-13.8-23.85zM73.91 74.37a17.58 17.58 0 018.77 15.19v55.5l-34.8-20.09 11.17-8.8c3.87-3.05 6.09-7.62 6.09-12.55v-34.3l8.77 5.05zM55.12 63.52v40.08c0 1.84-.83 3.55-2.27 4.68l-42.83 33.77V47.8c0-2.12 1.14-4.1 2.98-5.16a5.983 5.983 0 015.96 0l8.6 4.96v71.05l10.02-7.9V31.89c0-2.12 1.14-4.1 2.98-5.16a5.983 5.983 0 015.96 0l8.6 4.96v20.25L45.1 46.15v11.58l10.02 5.79z" fill="black"/><path d="M273.19 75.14h-23.61V56.37h-12.05v48.15h12.05V85.75h23.61v18.77h12.49V56.37h-12.49v18.77zM333.32 56.37h-19.28c-5.34 0-8.59 1.01-11.05 3.47-2.45 2.45-3.39 5.56-3.39 11.05v19.13c0 5.49.94 8.59 3.39 11.05 2.45 2.46 5.7 3.47 11.05 3.47h19.28c5.34 0 8.59-1.01 11.05-3.47 2.46-2.45 3.39-5.56 3.39-11.05V70.89c0-5.49-.94-8.59-3.39-11.05-2.46-2.46-5.71-3.47-11.05-3.47zm2.38 33.93c0 2.82-.94 3.61-4.33 3.61h-15.38c-3.39 0-4.33-.79-4.33-3.61V70.59c0-2.82.94-3.61 4.33-3.61h15.38c3.47 0 4.33.72 4.33 3.61V90.3zM416.97 56.37v10.61h18.55v37.54h12.06V66.98h18.48V56.37h-49.09zM394.89 75.64h-17.25c-3.39 0-4.33-.79-4.33-3.61v-1.44c0-2.82.94-3.61 4.33-3.61h29.18V56.37h-31.2c-5.42 0-8.66 1.01-11.05 3.47-2.17 2.24-3.39 5.7-3.39 9.53v2.89c0 3.83 1.23 7.36 3.39 9.53 2.38 2.45 5.7 3.47 11.05 3.47h17.25c3.39 0 4.33.79 4.33 3.61v1.44c0 2.82-.94 3.61-4.33 3.61h-30.9v10.61h32.92c5.41 0 8.66-1.01 11.05-3.47 2.16-2.24 3.39-5.7 3.39-9.53v-2.89c0-3.83-1.23-7.36-3.39-9.53-2.39-2.46-5.71-3.47-11.05-3.47z" fill="black"/><path d="M208.68 55.99H189.4c-5.34 0-8.59 1.01-11.05 3.47-2.45 2.45-3.39 5.56-3.39 11.04v34.01h12.06V70.22c0-2.82.94-3.61 4.33-3.61h15.38c3.47 0 4.33.72 4.33 3.61v34.3h12.06V70.51c0-5.49-.94-8.59-3.39-11.04-2.45-2.47-5.7-3.48-11.05-3.48z" fill="black"/></svg>