<svg xmlns="http://www.w3.org/2000/svg" xmlns:xlink="http://www.w3.org/1999/xlink" width="500" zoomAndPan="magnify" viewBox="0 0 375 374.999991" height="500" preserveAspectRatio="xMidYMid meet" version="1.0"><defs><g/><clipPath id="047742797e"><path d="M 115 84.371094 L 260 84.371094 L 260 214.871094 L 115 214.871094 Z M 115 84.371094 " clip-rule="nonzero"/></clipPath><clipPath id="f4f6d7c4e7"><path d="M 104.515625 171 L 113 171 L 113 200 L 104.515625 200 Z M 104.515625 171 " clip-rule="nonzero"/></clipPath><clipPath id="54cc9b7c29"><path d="M 262 171 L 270.265625 171 L 270.265625 200 L 262 200 Z M 262 171 " clip-rule="nonzero"/></clipPath><clipPath id="6a736fd902"><path d="M 145 112.722656 L 221 112.722656 L 221 252 L 145 252 Z M 145 112.722656 " clip-rule="nonzero"/></clipPath></defs><rect x="-37.5" width="450" fill="#ffffff" y="-37.499999" height="449.999989" fill-opacity="1"/><rect x="-37.5" width="450" fill="#ffffff" y="-37.499999" height="449.999989" fill-opacity="1"/><rect x="-37.5" width="450" fill="#0f335c" y="-37.499999" height="449.999989" fill-opacity="1"/><g clip-path="url(#047742797e)"><path fill="#ffffff" d="M 258.828125 167.765625 C 259.308594 160.9375 260.582031 126.5625 239.703125 103.953125 C 227.378906 90.609375 209.859375 84.050781 187.621094 84.488281 C 165.390625 84.070312 147.859375 90.609375 135.535156 103.953125 C 115.1875 125.988281 115.878906 159.203125 116.375 167.195312 C 116.082031 168.300781 115.921875 169.464844 115.921875 170.664062 L 115.921875 201.316406 C 115.921875 208.75 121.949219 214.777344 129.382812 214.777344 L 138.730469 214.777344 C 146.167969 214.777344 152.195312 208.75 152.195312 201.316406 L 152.195312 170.664062 C 152.195312 163.230469 146.167969 157.203125 138.730469 157.203125 L 129.386719 157.203125 C 128.371094 157.203125 127.382812 157.320312 126.429688 157.535156 C 126.941406 145.308594 129.910156 124.898438 142.992188 110.761719 C 153.289062 99.636719 168.296875 94.179688 187.519531 94.582031 L 187.621094 94.585938 L 187.722656 94.582031 C 206.953125 94.199219 221.953125 99.636719 232.25 110.761719 C 245.347656 124.914062 248.308594 145.355469 248.8125 157.574219 C 247.804688 157.335938 246.757812 157.203125 245.679688 157.203125 L 236.332031 157.203125 C 228.894531 157.203125 222.871094 163.230469 222.871094 170.664062 L 222.871094 201.316406 C 222.871094 208.75 228.894531 214.777344 236.332031 214.777344 L 245.679688 214.777344 C 253.113281 214.777344 259.140625 208.75 259.140625 201.316406 L 259.140625 170.664062 C 259.140625 169.667969 259.03125 168.699219 258.828125 167.765625 Z M 258.828125 167.765625 " fill-opacity="1" fill-rule="nonzero"/></g><g clip-path="url(#f4f6d7c4e7)"><path fill="#ffffff" d="M 112.652344 171.410156 L 104.515625 176.175781 L 104.515625 194.402344 L 112.652344 199.730469 " fill-opacity="1" fill-rule="nonzero"/></g><g clip-path="url(#54cc9b7c29)"><path fill="#ffffff" d="M 262.132812 171.410156 L 270.265625 176.175781 L 270.265625 194.402344 L 262.132812 199.730469 " fill-opacity="1" fill-rule="nonzero"/></g><g clip-path="url(#6a736fd902)"><path fill="#ffffff" d="M 182.292969 112.722656 C 190.6875 133.117188 199.851562 145.089844 205.699219 151.71875 C 210.3125 156.953125 235.601562 180.222656 206.453125 216.585938 C 223.773438 180.980469 217.539062 159.875 186.578125 146.855469 L 186.578125 222.230469 C 187.550781 253.273438 155.527344 255.171875 147.71875 246.914062 C 139.652344 238.386719 158.671875 210.09375 182.296875 219.386719 L 182.296875 112.722656 Z M 182.292969 112.722656 " fill-opacity="1" fill-rule="evenodd"/></g><g fill="#ffffff" fill-opacity="1"><g transform="translate(105.800755, 293.062217)"><g><path d="M 7.636719 -22.035156 C 4.433594 -21.09375 3.558594 -18.214844 4.398438 -16.242188 C 5.5 -13.75 9.027344 -12.84375 11.808594 -15.496094 C 11.972656 -16.046875 11.390625 -17.082031 10.710938 -16.953125 C 7.410156 -14.980469 6.40625 -18.894531 9.316406 -19.800781 C 10.9375 -20.382812 12.941406 -19.671875 15.046875 -18.832031 C 14.300781 -16.5 13.589844 -13.71875 12.164062 -8.542969 C 11.164062 -5.078125 10.222656 -2.039062 8.445312 -2.007812 C 6.308594 -1.941406 5.726562 -4.496094 7.34375 -6.472656 C 7.539062 -7.183594 6.246094 -8.1875 5.371094 -7.894531 C 4.109375 -7.246094 3.332031 -6.179688 3.074219 -4.949219 C 2.554688 -2.589844 3.949219 0.355469 8.023438 0.324219 C 12.910156 0.292969 14.105469 -3.234375 15.820312 -8.867188 C 17.082031 -13.296875 17.632812 -15.496094 18.3125 -17.699219 C 20.773438 -17.179688 23.167969 -16.890625 25.203125 -18.3125 C 26.371094 -19.121094 27.179688 -21.226562 26.402344 -22.90625 C 26.046875 -23.394531 24.6875 -23.394531 24.394531 -22.777344 C 24.363281 -21.09375 23.457031 -20.222656 21.453125 -20.125 C 16.953125 -19.867188 13.234375 -23.78125 7.636719 -22.035156 Z M 7.636719 -22.035156 "/></g></g></g><g fill="#ffffff" fill-opacity="1"><g transform="translate(126.888012, 293.062217)"><g><path d="M 10.03125 -13.296875 C 9.414062 -11.128906 8.769531 -8.769531 8.089844 -6.730469 C 7.117188 -3.980469 5.078125 -2.070312 3.816406 -2.070312 C 2.621094 -2.070312 2.945312 -3.753906 3.398438 -5.597656 C 3.980469 -8.1875 4.820312 -11.066406 5.273438 -12.878906 C 5.273438 -13.75 2.296875 -14.042969 1.910156 -13.234375 C 1.164062 -10.355469 0.03125 -7.183594 -0.550781 -3.949219 C -0.96875 -1.683594 -0.324219 0.257812 2.234375 0.292969 C 4.398438 0.355469 6.4375 -0.710938 8.316406 -3.816406 C 7.828125 -1.875 8.507812 0.160156 10.289062 0.160156 C 13.652344 0.195312 16.046875 -4.304688 17.148438 -6.503906 C 17.34375 -6.890625 16.210938 -7.570312 16.015625 -7.152344 C 14.851562 -4.433594 12.910156 -2.039062 11.679688 -2.070312 C 10.03125 -2.070312 12.554688 -9.835938 13.394531 -12.84375 C 13.167969 -13.785156 10.417969 -14.007812 10.03125 -13.296875 Z M 10.03125 -13.296875 "/></g></g></g><g fill="#ffffff" fill-opacity="1"><g transform="translate(140.924347, 293.062217)"><g><path d="M 4.691406 0.257812 C 6.664062 0.292969 8.507812 -0.519531 9.964844 -1.875 C 12.292969 -1.421875 15.175781 -1.84375 17.308594 -6.503906 C 17.503906 -6.925781 16.308594 -7.539062 16.175781 -7.152344 C 14.820312 -3.980469 12.972656 -3.136719 11.292969 -3.234375 C 13.914062 -7.34375 14.074219 -13.039062 9.675781 -13.621094 C 8.054688 -13.816406 6.277344 -13.136719 4.984375 -12.199219 C 5.855469 -15.175781 6.925781 -18.734375 7.925781 -21.320312 C 7.925781 -22.164062 5.242188 -22.617188 4.496094 -22.035156 C 3.269531 -18.863281 0.0976562 -10.03125 0.453125 -5.304688 C 0.355469 -2.265625 1.164062 0.226562 4.691406 0.257812 Z M 4.757812 -1.972656 C 2.007812 -2.265625 3.398438 -7.28125 4.335938 -9.804688 C 5.53125 -10.839844 6.828125 -11.582031 7.992188 -11.519531 C 10.710938 -11.390625 9.382812 -6.925781 8.574219 -5.078125 C 7.636719 -5.304688 6.859375 -4.078125 7.410156 -3.171875 C 6.761719 -2.394531 5.921875 -1.84375 4.757812 -1.972656 Z M 4.757812 -1.972656 "/></g></g></g><g fill="#ffffff" fill-opacity="1"><g transform="translate(155.090055, 293.062217)"><g><path d="M 8.21875 -13.71875 C 4.433594 -13.847656 1.035156 -11.195312 0.160156 -6.957031 C -0.648438 -3.332031 1.101562 0.160156 6.019531 0.324219 C 9.089844 0.421875 12.972656 -0.648438 15.59375 -6.503906 C 15.757812 -6.890625 14.625 -7.539062 14.429688 -7.152344 C 12.554688 -2.878906 9.125 -1.746094 6.925781 -1.972656 C 4.660156 -2.199219 3.460938 -3.527344 3.65625 -5.597656 C 7.410156 -4.722656 10.484375 -5.855469 11.679688 -8.28125 C 12.910156 -10.644531 11.84375 -13.589844 8.21875 -13.71875 Z M 7.796875 -11.421875 C 9.027344 -11.390625 9.058594 -10.222656 8.542969 -9.15625 C 7.894531 -7.734375 6.277344 -6.890625 3.882812 -7.246094 C 4.464844 -9.578125 6.277344 -11.519531 7.796875 -11.421875 Z M 7.796875 -11.421875 "/></g></g></g><g fill="#ffffff" fill-opacity="1"><g transform="translate(167.541546, 293.062217)"><g/></g></g><g fill="#ffffff" fill-opacity="1"><g transform="translate(173.362577, 293.062217)"><g><path d="M 12.070312 0.0976562 C 13.007812 0.128906 13.878906 -2.328125 12.617188 -2.425781 C 10.449219 -2.554688 7.183594 -2.554688 4.984375 -2.363281 C 8.832031 -4.949219 13.199219 -9.738281 14.105469 -13.976562 C 15.140625 -19.25 12.390625 -21.289062 9.027344 -21.289062 C 5.855469 -21.257812 2.523438 -19.058594 2.847656 -14.753906 C 2.910156 -13.652344 5.726562 -13.945312 5.628906 -14.949219 C 5.46875 -17.535156 7.117188 -18.925781 8.671875 -18.925781 C 10.386719 -18.894531 11.550781 -17.4375 10.742188 -14.367188 C 9.609375 -10.09375 5.015625 -4.984375 1.457031 -2.847656 C 0.0976562 -2.039062 0.421875 0.128906 2.039062 0.0664062 C 5.144531 -0.03125 8.929688 0 12.070312 0.0976562 Z M 12.070312 0.0976562 "/></g></g></g><g fill="#ffffff" fill-opacity="1"><g transform="translate(187.463591, 293.062217)"><g/></g></g><g fill="#ffffff" fill-opacity="1"><g transform="translate(193.284622, 293.062217)"><g><path d="M 7.636719 -22.035156 C 4.433594 -21.09375 3.558594 -18.214844 4.398438 -16.242188 C 5.5 -13.75 9.027344 -12.84375 11.808594 -15.496094 C 11.972656 -16.046875 11.390625 -17.082031 10.710938 -16.953125 C 7.410156 -14.980469 6.40625 -18.894531 9.316406 -19.800781 C 10.9375 -20.382812 12.941406 -19.671875 15.046875 -18.832031 C 14.300781 -16.5 13.589844 -13.71875 12.164062 -8.542969 C 11.164062 -5.078125 10.222656 -2.039062 8.445312 -2.007812 C 6.308594 -1.941406 5.726562 -4.496094 7.34375 -6.472656 C 7.539062 -7.183594 6.246094 -8.1875 5.371094 -7.894531 C 4.109375 -7.246094 3.332031 -6.179688 3.074219 -4.949219 C 2.554688 -2.589844 3.949219 0.355469 8.023438 0.324219 C 12.910156 0.292969 14.105469 -3.234375 15.820312 -8.867188 C 17.082031 -13.296875 17.632812 -15.496094 18.3125 -17.699219 C 20.773438 -17.179688 23.167969 -16.890625 25.203125 -18.3125 C 26.371094 -19.121094 27.179688 -21.226562 26.402344 -22.90625 C 26.046875 -23.394531 24.6875 -23.394531 24.394531 -22.777344 C 24.363281 -21.09375 23.457031 -20.222656 21.453125 -20.125 C 16.953125 -19.867188 13.234375 -23.78125 7.636719 -22.035156 Z M 7.636719 -22.035156 "/></g></g></g><g fill="#ffffff" fill-opacity="1"><g transform="translate(214.371877, 293.062217)"><g><path d="M 10.03125 -13.296875 C 9.414062 -11.128906 8.769531 -8.769531 8.089844 -6.730469 C 7.117188 -3.980469 5.078125 -2.070312 3.816406 -2.070312 C 2.621094 -2.070312 2.945312 -3.753906 3.398438 -5.597656 C 3.980469 -8.1875 4.820312 -11.066406 5.273438 -12.878906 C 5.273438 -13.75 2.296875 -14.042969 1.910156 -13.234375 C 1.164062 -10.355469 0.03125 -7.183594 -0.550781 -3.949219 C -0.96875 -1.683594 -0.324219 0.257812 2.234375 0.292969 C 4.398438 0.355469 6.4375 -0.710938 8.316406 -3.816406 C 7.828125 -1.875 8.507812 0.160156 10.289062 0.160156 C 13.652344 0.195312 16.046875 -4.304688 17.148438 -6.503906 C 17.34375 -6.890625 16.210938 -7.570312 16.015625 -7.152344 C 14.851562 -4.433594 12.910156 -2.039062 11.679688 -2.070312 C 10.03125 -2.070312 12.554688 -9.835938 13.394531 -12.84375 C 13.167969 -13.785156 10.417969 -14.007812 10.03125 -13.296875 Z M 10.03125 -13.296875 "/></g></g></g><g fill="#ffffff" fill-opacity="1"><g transform="translate(228.408214, 293.062217)"><g><path d="M 10.0625 -13.785156 C 7.925781 -13.816406 5.726562 -11.710938 4.5625 -10.355469 C 4.851562 -11.292969 4.984375 -11.84375 5.273438 -12.878906 C 4.949219 -13.878906 2.425781 -14.042969 1.910156 -13.332031 C 0.613281 -8.605469 -0.484375 -4.917969 -1.519531 -0.613281 C -1.457031 0.453125 1.746094 0.355469 2.101562 -0.355469 C 2.78125 -3.269531 3.136719 -4.917969 4.042969 -7.960938 C 5.242188 -9.578125 6.957031 -11.097656 8.089844 -11.128906 C 9.1875 -11.164062 9.027344 -10.09375 8.800781 -9.125 C 8.507812 -7.796875 7.601562 -4.269531 7.410156 -3.171875 C 7.019531 -1.066406 7.765625 0.355469 10.222656 0.292969 C 13.363281 0.257812 15.789062 -3.6875 17.082031 -6.503906 C 17.246094 -6.890625 16.113281 -7.539062 15.949219 -7.152344 C 14.753906 -4.367188 12.84375 -1.972656 11.519531 -1.972656 C 10.710938 -1.972656 10.871094 -3.203125 11.128906 -4.398438 C 11.484375 -5.953125 12.164062 -7.765625 12.519531 -9.253906 C 13.136719 -11.875 12.519531 -13.75 10.0625 -13.785156 Z M 10.0625 -13.785156 "/></g></g></g><g fill="#ffffff" fill-opacity="1"><g transform="translate(242.347518, 293.062217)"><g><path d="M 8.21875 -13.71875 C 4.433594 -13.847656 1.035156 -11.195312 0.160156 -6.957031 C -0.648438 -3.332031 1.101562 0.160156 6.019531 0.324219 C 9.089844 0.421875 12.972656 -0.648438 15.59375 -6.503906 C 15.757812 -6.890625 14.625 -7.539062 14.429688 -7.152344 C 12.554688 -2.878906 9.125 -1.746094 6.925781 -1.972656 C 4.660156 -2.199219 3.460938 -3.527344 3.65625 -5.597656 C 7.410156 -4.722656 10.484375 -5.855469 11.679688 -8.28125 C 12.910156 -10.644531 11.84375 -13.589844 8.21875 -13.71875 Z M 7.796875 -11.421875 C 9.027344 -11.390625 9.058594 -10.222656 8.542969 -9.15625 C 7.894531 -7.734375 6.277344 -6.890625 3.882812 -7.246094 C 4.464844 -9.578125 6.277344 -11.519531 7.796875 -11.421875 Z M 7.796875 -11.421875 "/></g></g></g><g fill="#ffffff" fill-opacity="1"><g transform="translate(254.799009, 293.062217)"><g><path d="M 4.886719 0.355469 C 6.828125 0.386719 8.640625 -0.386719 9.578125 -1.746094 C 11.746094 -1.683594 14.007812 -2.683594 15.757812 -6.503906 C 15.917969 -6.859375 14.785156 -7.539062 14.625 -7.183594 C 13.363281 -4.238281 11.710938 -3.269531 10.257812 -3.203125 C 11.03125 -6.472656 9.15625 -8.800781 8.574219 -12.910156 C 10.222656 -15.078125 7.183594 -16.210938 4.917969 -14.074219 C 2.847656 -12.199219 1.035156 -9.058594 -0.324219 -6.050781 C -0.550781 -5.597656 0.613281 -5.015625 0.808594 -5.4375 C 2.101562 -8.121094 3.722656 -11 5.371094 -12.652344 C 5.597656 -9.964844 7.019531 -7.28125 6.988281 -4.984375 C 6.050781 -4.984375 5.597656 -3.527344 6.4375 -2.75 C 6.148438 -2.328125 5.53125 -1.972656 4.917969 -1.972656 C 3.851562 -1.972656 3.074219 -2.878906 3.300781 -4.269531 C 2.878906 -4.660156 1.488281 -4.433594 1.230469 -3.558594 C 1.066406 -1.003906 2.976562 0.355469 4.886719 0.355469 Z M 4.886719 0.355469 "/></g></g></g></svg>