<svg xmlns="http://www.w3.org/2000/svg" xmlns:xlink="http://www.w3.org/1999/xlink" version="1.1" id="Layer_1" viewBox="0 0 77.002 77.002" xml:space="preserve" width="96" height="96">
  <g>
    <g>
      <path style="fill:#454F58;" d="M23.288 44.465c0.371 0.371 0.867 2.828 -0.988 4.684L0.861 70.587c-1.148 1.148 -1.148 3.027 0 4.175l1.379 1.379c1.148 1.148 3.027 1.148 4.175 0l21.439 -21.439c1.856 -1.856 4.312 -1.359 4.683 -0.988L23.288 44.465z"/>
      <path x="44.569" y="311.165" transform="matrix(0.7071 -0.7071 0.7071 0.7071 -211.8256 152.8296)" style="fill:#5C6670;" width="68" height="41.892" d="M8.357 58.343H21.107V66.198H8.357V58.343z"/>
      <path style="fill:#FF6361;" d="M7.447 64.001L0.861 70.587c-1.148 1.148 -1.148 3.027 0 4.175l1.379 1.379c1.148 1.148 3.027 1.148 4.175 0l6.586 -6.586L7.447 64.001z"/>
    </g>
    <path style="fill:#A77F73;" d="M75.796 17.331c1.18 -1.181 1.56 -3.381 0.844 -4.889l-2.587 -5.449c-0.716 -1.508 -2.536 -3.328 -4.044 -4.044L64.56 0.362c-1.508 -0.716 -3.708 -0.336 -4.888 0.845L21.517 39.361c-1.181 1.181 -1.181 3.113 0 4.293l11.831 11.831c1.181 1.181 3.113 1.181 4.293 0L75.796 17.331z"/>
    <path style="fill:#7C5C5B;" d="M58.786 3.321c-0.078 -0.341 -0.154 -0.677 -0.225 -1.004L56.208 4.671c0.766 3.429 1.382 7.199 -1.615 10.196c-2.565 2.565 -5.805 2.527 -9.236 2.484c-0.606 -0.007 -1.217 -0.015 -1.824 -0.005l-3.231 3.23c1.39 -0.455 3.117 -0.435 5.021 -0.413c3.684 0.045 7.856 0.095 11.259 -3.308C60.891 12.546 59.675 7.214 58.786 3.321zM51.03 34.234c-3.874 3.853 -3.872 7.917 -3.87 11.181c0 0.186 0 0.37 -0.001 0.552l2.857 -2.857c0.137 -2.334 0.7 -4.597 2.996 -6.882c2.433 -2.42 4.63 -2.839 7.15 -3.264l3.758 -3.757c-1.37 0.503 -2.685 0.725 -4.034 0.952C57.071 30.632 54.159 31.122 51.03 34.234z"/>
  </g>
</svg>
