<svg width="20" height="20" viewBox="0 0 20 20" fill="none" xmlns="http://www.w3.org/2000/svg">
<path d="M11.6667 5.83334V5.83334C11.6667 5.36869 11.6667 5.13636 11.6282 4.94316C11.4704 4.14978 10.8502 3.52959 10.0569 3.37177C9.86366 3.33334 9.63133 3.33334 9.16668 3.33334H7.33334C5.44773 3.33334 4.50492 3.33334 3.91913 3.91913C3.33334 4.50492 3.33334 5.44773 3.33334 7.33335V9.16668C3.33334 9.63133 3.33334 9.86366 3.37177 10.0569C3.52959 10.8502 4.14978 11.4704 4.94316 11.6282C5.13636 11.6667 5.36869 11.6667 5.83334 11.6667V11.6667" stroke="#4D5562" stroke-width="2"/>
<rect x="8.33334" y="8.33334" width="8.33333" height="8.33333" rx="2" stroke="#4D5562" stroke-width="2"/>
</svg>
