<svg width="20" height="20" viewBox="0 0 20 20" fill="none" xmlns="http://www.w3.org/2000/svg">
<path d="M3.46532 11.6089C2.87114 10.6186 2.87114 9.38143 3.46532 8.39114C3.64663 8.08895 3.94701 7.87726 4.29258 7.80815L5.70344 7.52598C5.78749 7.50917 5.86326 7.46409 5.91814 7.39824L7.17085 5.89498C8.3534 4.47592 8.94468 3.76638 9.47234 3.95742C10 4.14846 10 5.07207 10 6.91928L10 13.0807C10 14.9279 10 15.8515 9.47234 16.0426C8.94468 16.2336 8.3534 15.5241 7.17085 14.105L5.91814 12.6018C5.86326 12.5359 5.78749 12.4908 5.70344 12.474L4.29258 12.1918C3.94701 12.1227 3.64663 11.9111 3.46532 11.6089Z" fill="#4D5562"/>
<path d="M12.1129 7.05373C12.8903 7.83111 13.329 8.88422 13.3333 9.9836C13.3376 11.083 12.9073 12.1395 12.1361 12.923" stroke="#4D5562" stroke-width="2" stroke-linecap="round"/>
<path d="M15.5474 5.28596C16.7912 6.52977 17.493 8.21475 17.4999 9.97375C17.5069 11.7327 16.8183 13.4232 15.5844 14.6768" stroke="#4D5562" stroke-width="2" stroke-linecap="round"/>
</svg>
