<svg xmlns="http://www.w3.org/2000/svg" width="426.08" height="57.6" viewBox="0 0 426.08 57.6">
  <g id="logo-hack2play" transform="translate(-429 -155.5)">
    <g id="Group_311" data-name="Group 311" transform="translate(19.5 25)">
      <g id="Group_309" data-name="Group 309" transform="translate(-112)">
        <path id="Path_242" data-name="Path 242" d="M-84.84,0h8.8V-22.8h4.16c8.8,0,13.12-4.88,13.12-13.84v-5.52c0-8.96-4.32-13.84-13.12-13.84H-84.84Zm8.8-30.8V-48h4.16c2.8,0,4.32,1.28,4.32,5.28v6.64c0,4-1.52,5.28-4.32,5.28ZM-34.76,0h23.28V-8H-25.96V-56h-8.8ZM9.96,0h8.16l1.6-10.96h10v-.16L31.32,0h8.8L31-56H19.08Zm10.8-18.56L24.6-46.24h.16l3.92,27.68ZM67.96,0h8.8V-23.84L87.4-56H78.84l-6,20.56h-.16L66.68-56H57.32L67.96-23.84Z" transform="translate(860.18 187.3)" fill="#fff"/>
        <path id="Path_241" data-name="Path 241" d="M-12.84,0h8.8V-24H-1c4,0,5.52,1.68,5.52,6.88V-6.88c0,4.56.32,5.44.8,6.88h8.96c-.88-2.08-.96-4.08-.96-6.8v-9.84c0-6.32-1.44-10.48-5.84-11.84v-.16c3.92-1.6,5.76-5.28,5.76-11.04v-3.44C13.24-51.76,9.32-56,.2-56H-12.84Zm8.8-32V-48h4c3.12,0,4.48,1.76,4.48,5.76v4.32c0,4.48-2,5.92-5.28,5.92Z" transform="translate(739.06 187.3)" fill="#00f2fe"/>
        <path id="Path_240" data-name="Path 240" d="M-90.16,0h8.8V-25.2h9.44V0h8.8V-56h-8.8v22.8h-9.44V-56h-8.8Zm50.48,0h8.16l1.6-10.96h10v-.16L-18.32,0h8.8l-9.12-56H-30.56Zm10.8-18.56,3.84-27.68h.16l3.92,27.68ZM26.16.8c8.48,0,12.96-5.12,12.96-13.76v-7.92H30.8v8.56c0,3.68-1.76,5.12-4.4,5.12S22-8.64,22-12.32V-43.6c0-3.68,1.76-5.2,4.4-5.2s4.4,1.52,4.4,5.2v6.48h8.32v-5.92c0-8.64-4.48-13.76-12.96-13.76S13.2-51.68,13.2-43.04v30.08C13.2-4.32,17.68.8,26.16.8ZM63.6,0h8.8V-17.84l3.52-7.12L83.36,0h9.2L81.92-35.44,92.4-56H83.6L72.4-32.4V-56H63.6Z" transform="translate(611.66 187.3)" fill="#fff"/>
      </g>
      <path id="Line_26" data-name="Line 26" d="M8,2H0V-2H8Z" transform="translate(597 162.5)" fill="#00f2fe"/>
      <path id="Line_27" data-name="Line 27" d="M8,2H0V-2H8Z" transform="translate(648 162.5)" fill="#00f2fe"/>
    </g>
  </g>
</svg>
